<!DOCTYPE svg PUBLIC "-//W3C//DTD SVG 1.1//EN" "http://www.w3.org/Graphics/SVG/1.1/DTD/svg11.dtd">
<!-- Uploaded to: SVG Repo, www.svgrepo.com, Transformed by: SVG Repo Mixer Tools -->
<svg height="800px" width="800px" version="1.1" id="Layer_1" xmlns="http://www.w3.org/2000/svg" xmlns:xlink="http://www.w3.org/1999/xlink" viewBox="0 0 512 512" xml:space="preserve" fill="#fbc319">
<g id="SVGRepo_bgCarrier" stroke-width="0"/>
<g id="SVGRepo_tracerCarrier" stroke-linecap="round" stroke-linejoin="round"/>
<g id="SVGRepo_iconCarrier"> <path style="fill:#fbc319;" d="M417.684,169.768c0,78.255-55.512,143.468-129.347,158.451v46.349H358.4v64.674h-70.063v64.674 h-64.674v-64.674H153.6v-64.674h70.063v-46.349c-73.836-14.983-129.347-80.195-129.347-158.451 C94.316,80.519,166.75,8.084,256,8.084S417.684,80.519,417.684,169.768z M336.842,169.768c0-44.625-36.217-80.842-80.842-80.842 s-80.842,36.217-80.842,80.842s36.217,80.842,80.842,80.842S336.842,214.393,336.842,169.768z"/> <path d="M296.421,512h-80.842v-64.674h-70.063v-80.842h70.063v-31.791c-35.274-8.632-67.214-28.636-90.51-56.821 c-25.045-30.303-38.838-68.694-38.838-108.103C86.232,76.158,162.389,0,256,0s169.768,76.158,169.768,169.768 c0,39.409-13.793,77.8-38.838,108.103c-23.294,28.185-55.236,48.189-90.51,56.821v31.791h70.063v80.842h-70.063V512z M231.747,495.832h48.505v-64.674h70.063v-48.505h-70.063V321.61l6.477-1.314c34.216-6.943,65.374-25.668,87.737-52.726 c22.656-27.411,35.133-62.144,35.133-97.802c0-84.696-68.904-153.6-153.6-153.6s-153.6,68.904-153.6,153.6 c0,35.658,12.477,70.391,35.133,97.802c22.363,27.058,53.522,45.783,87.737,52.726l6.477,1.314v61.042h-70.063v48.505h70.063 V495.832z"/> <path d="M256,258.695c-49.033,0-88.926-39.892-88.926-88.926S206.967,80.842,256,80.842s88.926,39.892,88.926,88.926 S305.033,258.695,256,258.695z M256,97.011c-40.119,0-72.758,32.639-72.758,72.758s32.639,72.758,72.758,72.758 s72.758-32.639,72.758-72.758S296.119,97.011,256,97.011z"/> </g>
</svg>