<!DOCTYPE svg PUBLIC "-//W3C//DTD SVG 1.1//EN" "http://www.w3.org/Graphics/SVG/1.1/DTD/svg11.dtd">
<!-- Uploaded to: SVG Repo, www.svgrepo.com, Transformed by: SVG Repo Mixer Tools -->
<svg height="800px" width="800px" version="1.1" id="Layer_1" xmlns="http://www.w3.org/2000/svg" xmlns:xlink="http://www.w3.org/1999/xlink" viewBox="0 0 512.002 512.002" xml:space="preserve" fill="#fbc319" stroke="#fbc319">
<g id="SVGRepo_bgCarrier" stroke-width="0"/>
<g id="SVGRepo_tracerCarrier" stroke-linecap="round" stroke-linejoin="round"/>
<g id="SVGRepo_iconCarrier"> <g> <path style="fill:#fbc319;" d="M211.792,229.368c-6.384-16.865-9.998-35.053-9.998-54.206c0-19.032,3.614-37.101,9.877-53.845 c14.335,13.612,23.249,33.005,23.249,54.326c0,21.201-8.794,40.353-22.886,53.965L211.792,229.368z"/> <path style="fill:#fbc319;" d="M502.938,175.163c0,72.877-51.676,133.588-120.458,147.561v78.297h30.114l-60.229,80.345 l-60.228-80.345h30.114v-78.297c-24.694-5.059-47.219-16.141-65.89-31.68c19.393-16.262,34.692-37.342,43.847-61.554 c13.612,12.889,31.922,20.959,52.158,20.959c41.557,0,75.286-33.728,75.286-75.286s-33.728-75.286-75.286-75.286 c-20.237,0-38.667,8.071-52.278,21.08h-0.121c-9.395-23.971-24.694-45.052-44.208-61.313l0.24-0.24 c26.139-21.682,59.747-34.812,96.367-34.812C435.481,24.591,502.938,92.047,502.938,175.163z"/> </g> <path style="fill:#fbc319;" d="M211.671,121.318c-13.491-13.009-31.922-20.959-52.038-20.959c-41.557,0-75.286,33.728-75.286,75.286 s33.728,75.286,75.286,75.286c20.358,0,38.908-8.071,52.399-21.321c14.094-13.612,22.886-32.765,22.886-53.965 C234.92,154.323,226.006,134.93,211.671,121.318z M300.208,229.489c-9.155,24.212-24.452,45.292-43.847,61.554 c-18.792,15.78-41.557,27.103-66.613,32.162v43.244h65.288v60.228h-65.288v60.229h-60.228v-60.228h-65.29V366.45h65.288v-43.245 C60.738,309.231,9.062,248.521,9.062,175.645c0-83.116,67.456-150.573,150.572-150.573c36.498,0,70.107,13.009,96.125,34.571 c19.514,16.262,34.812,37.342,44.208,61.313c6.625,16.984,10.239,35.415,10.239,54.687 C310.205,194.556,306.712,212.745,300.208,229.489z"/> <path d="M159.633,91.297c-46.51,0-84.348,37.838-84.348,84.348s37.838,84.348,84.348,84.348c22.169,0,43.02-8.483,58.722-23.89 c16.525-15.975,25.625-37.444,25.625-60.458c0-22.969-9.502-45.164-26.019-60.849C202.247,99.642,181.533,91.297,159.633,91.297z M93.41,175.644c0-36.517,29.708-66.225,66.225-66.225c15.246,0,29.748,5.16,41.465,14.653c-5.548,16.687-8.367,33.841-8.367,51.089 c0,17.606,2.9,35.026,8.607,51.87c-11.681,9.599-26.279,14.836-41.706,14.836C123.117,241.868,93.41,212.16,93.41,175.644z M215.495,211.182c-3.079-11.806-4.64-23.866-4.64-36.02c0-11.847,1.501-23.657,4.469-35.276 c6.785,10.558,10.533,22.999,10.533,35.758C225.858,188.478,222.235,200.688,215.495,211.182z"/> <path d="M352.365,15.528c-34.849,0-68.901,11.51-96.653,32.54c-27.544-20.72-61.375-32.058-96.079-32.058 C71.612,16.01,0,87.621,0,175.644c0,37.057,12.967,73.154,36.513,101.643c21.643,26.186,51.23,44.867,83.945,53.144v26.957H55.169 v78.352h65.288v60.229h78.353V435.74h65.288v-78.352h-65.288v-26.95c20.784-5.241,40.445-14.755,57.579-27.831 c16.897,12.766,36.288,22.107,56.802,27.329v62.022h-39.17l78.347,104.515l78.347-104.515h-39.171v-62.01 c32.714-8.278,62.303-26.958,83.946-53.144c23.545-28.489,36.513-64.586,36.513-101.642C512,87.14,440.388,15.528,352.365,15.528z M187.955,314.323l-7.269,1.467v59.722h65.288v42.105h-65.288v60.229H138.58v-60.229H73.293v-42.105h65.288v-59.712l-7.258-1.475 C65.73,301,18.124,242.676,18.124,175.644c0-78.029,63.482-141.51,141.51-141.51c32.979,0,65.064,11.537,90.324,32.471 c18.433,15.36,32.808,35.299,41.567,57.644c6.383,16.363,9.619,33.654,9.619,51.395c0,17.524-3.157,34.536-9.383,50.563 l-0.029,0.076c-8.43,22.296-22.675,42.287-41.198,57.819C232.499,299.248,210.859,309.698,187.955,314.323z M310.635,123.756 c11.864-9.585,26.476-14.818,41.731-14.818c36.517,0,66.225,29.708,66.225,66.225s-29.708,66.225-66.225,66.225 c-15.108,0-29.64-5.174-41.515-14.656c5.582-16.337,8.417-33.49,8.417-51.087C319.267,157.831,316.362,140.412,310.635,123.756z M380.676,313.842l-7.258,1.475v94.766h21.058l-42.111,56.176l-42.111-56.176h21.057V315.33l-7.243-1.484 c-19.252-3.945-37.575-11.966-53.57-23.361c13.856-13.375,25.163-29.126,33.317-46.381c14.237,9.998,31.082,15.406,48.548,15.406 c46.51,0,84.348-37.838,84.348-84.348s-37.838-84.348-84.348-84.348c-17.651,0-34.618,5.482-48.883,15.619 c-8.344-17.272-19.74-32.984-33.582-46.269c24.002-17.144,52.903-26.512,82.465-26.512c78.029,0,141.511,63.482,141.511,141.511 C493.876,242.195,446.268,300.517,380.676,313.842z"/> </g>
</svg>