<svg version="1.1" xmlns="http://www.w3.org/2000/svg" viewBox="0 0 86.37309539306807 100.59319427101605" width="86.37309539306807" height="100.59319427101605">
  <!-- svg-source:excalidraw -->
  
  <defs>
    <style class="style-fonts">
      
    </style>
    
  </defs>
  <g stroke-linecap="round" transform="translate(10 27.3936629260088) rotate(0 19.11843173242528 19.98745135662648)"><path d="M21.28 0.25 C25.16 0.53, 30.35 3.22, 33.11 6.33 C35.88 9.43, 37.61 14.71, 37.85 18.89 C38.08 23.08, 36.96 27.98, 34.54 31.43 C32.11 34.87, 27.24 38.53, 23.29 39.54 C19.34 40.56, 14.46 39.52, 10.83 37.53 C7.2 35.53, 3.17 31.48, 1.5 27.59 C-0.18 23.71, -0.42 18.22, 0.78 14.22 C1.98 10.22, 5.21 5.91, 8.71 3.61 C12.22 1.31, 19.43 0.84, 21.82 0.43 C24.2 0.01, 23.09 0.8, 23.01 1.11 M15.13 0.6 C18.93 -0.47, 25.27 0.57, 28.88 2.6 C32.49 4.63, 35.31 8.9, 36.78 12.8 C38.24 16.71, 38.93 21.96, 37.66 26.02 C36.39 30.08, 32.73 34.78, 29.14 37.15 C25.54 39.53, 20.06 40.97, 16.08 40.26 C12.09 39.56, 7.85 36.24, 5.25 32.94 C2.64 29.63, 0.67 24.71, 0.45 20.45 C0.23 16.19, 1.53 10.81, 3.93 7.38 C6.32 3.95, 12.95 1.07, 14.81 -0.14 C16.67 -1.34, 14.88 -0.25, 15.1 0.13" stroke="#ffd43b" stroke-width="4" fill="none"></path></g><g stroke-linecap="round" transform="translate(25.573930469933202 23.673218692325577) rotate(0 19.11843173242528 19.98745135662648)"><path d="M15.66 0.25 C19.46 -0.51, 24.96 0.88, 28.61 3.15 C32.27 5.42, 36.19 9.92, 37.58 13.88 C38.98 17.83, 38.51 22.99, 36.97 26.9 C35.42 30.81, 31.86 35.22, 28.34 37.32 C24.81 39.43, 19.77 40.24, 15.8 39.51 C11.83 38.79, 7.11 36.31, 4.49 32.97 C1.88 29.63, 0.06 23.78, 0.12 19.47 C0.18 15.15, 2.15 10.33, 4.87 7.08 C7.6 3.83, 14.45 1.1, 16.47 -0.05 C18.48 -1.19, 16.8 -0.24, 16.96 0.2 M21.08 -0.03 C25 0.08, 29.07 3.23, 31.85 6.28 C34.63 9.34, 37.27 14.12, 37.77 18.29 C38.27 22.47, 36.98 27.8, 34.86 31.33 C32.75 34.86, 28.88 38.44, 25.09 39.48 C21.3 40.51, 16.06 39.23, 12.14 37.55 C8.21 35.88, 3.52 33.21, 1.54 29.43 C-0.44 25.66, -0.83 19.28, 0.24 14.91 C1.32 10.53, 4.54 5.68, 7.99 3.19 C11.44 0.71, 18.83 0.45, 20.95 0.01 C23.08 -0.43, 20.87 0.22, 20.76 0.54" stroke="#ffd43b" stroke-width="4" fill="none"></path></g><g stroke-linecap="round"><g transform="translate(29.535507694210082 66.74170046193217) rotate(0 0 11.791006763321548)"><path d="M-0.22 -0.23 C-0.17 3.81, 0.21 19.87, 0.16 23.85 M0.67 -0.82 C0.68 3.09, -0.16 18.84, -0.19 23.02" stroke="#ffd43b" stroke-width="4" fill="none"></path></g></g><mask></mask><g stroke-linecap="round"><g transform="translate(19.673938401250325 81.74843634252318) rotate(0 10.504715116413536 -0.8575277646051518)"><path d="M-0.54 -0.24 C2.9 -0.45, 17.38 -1.26, 21.01 -1.58 M0.18 0.83 C3.52 0.48, 17.11 -2.03, 20.58 -2.48" stroke="#ffd43b" stroke-width="4" fill="none"></path></g></g><mask></mask><g stroke-linecap="round"><g transform="translate(56.976396161576304 29.86800658390871) rotate(0 9.004041528354719 -8.575277646051973)"><path d="M-1.09 0.99 C1.93 -1.87, 13.74 -14.76, 17 -17.98 M0.53 0.47 C4.03 -2.2, 16.29 -13.87, 19.19 -16.88" stroke="#ffd43b" stroke-width="4" fill="none"></path></g></g><mask></mask><g stroke-linecap="round"><g transform="translate(62.12156274920744 12.717451291804764) rotate(0 7.074604057992929 -1.071909705756525)"><path d="M0.32 0.34 C2.76 -0.04, 12.04 -1.42, 14.25 -1.84 M-0.18 0.04 C2.23 -0.27, 11.4 -2.37, 13.87 -2.64" stroke="#ffd43b" stroke-width="4" fill="none"></path></g></g><mask></mask><g stroke-linecap="round"><g transform="translate(74.12695145368025 25.15160387858009) rotate(0 0.21438194115125953 -7.5033679402955045)"><path d="M-0.02 -0.14 C0.07 -2.72, 0.05 -12.75, 0.08 -15.15 M-0.7 -0.69 C-0.38 -3.22, 1.07 -12.08, 1.14 -14.53" stroke="#ffd43b" stroke-width="4" fill="none"></path></g></g><mask></mask></svg>