<svg version="1.1" xmlns="http://www.w3.org/2000/svg" viewBox="0 0 58.2368634648501 83.19953134500724" width="58.2368634648501" height="83.19953134500724">
  <!-- svg-source:excalidraw -->
  
  <defs>
    <style class="style-fonts">
      
    </style>
    
  </defs>
  <g stroke-linecap="round" transform="translate(9.999999999999545 10) rotate(0 19.11843173242528 19.98745135662648)"><path d="M21.28 0.25 C25.16 0.53, 30.35 3.22, 33.11 6.33 C35.88 9.43, 37.61 14.71, 37.85 18.89 C38.08 23.08, 36.96 27.98, 34.54 31.43 C32.11 34.87, 27.24 38.53, 23.29 39.54 C19.34 40.56, 14.46 39.52, 10.83 37.53 C7.2 35.53, 3.17 31.48, 1.5 27.59 C-0.18 23.71, -0.42 18.22, 0.78 14.22 C1.98 10.22, 5.21 5.91, 8.71 3.61 C12.22 1.31, 19.43 0.84, 21.82 0.43 C24.2 0.01, 23.09 0.8, 23.01 1.11 M15.13 0.6 C18.93 -0.47, 25.27 0.57, 28.88 2.6 C32.49 4.63, 35.31 8.9, 36.78 12.8 C38.24 16.71, 38.93 21.96, 37.66 26.02 C36.39 30.08, 32.73 34.78, 29.14 37.15 C25.54 39.53, 20.06 40.97, 16.08 40.26 C12.09 39.56, 7.85 36.24, 5.25 32.94 C2.64 29.63, 0.67 24.71, 0.45 20.45 C0.23 16.19, 1.53 10.81, 3.93 7.38 C6.32 3.95, 12.95 1.07, 14.81 -0.14 C16.67 -1.34, 14.88 -0.25, 15.1 0.13" stroke="#ffd43b" stroke-width="4" fill="none"></path></g><g stroke-linecap="round"><g transform="translate(29.535507694209628 49.34803753592337) rotate(0 0 11.791006763321548)"><path d="M-0.22 -0.23 C-0.17 3.81, 0.21 19.87, 0.16 23.85 M0.67 -0.82 C0.68 3.09, -0.16 18.84, -0.19 23.02" stroke="#ffd43b" stroke-width="4" fill="none"></path></g></g><mask></mask><g stroke-linecap="round"><g transform="translate(20.10270228355239 63.06848176960659) rotate(0 10.504715116413536 -0.8575277646051518)"><path d="M-0.54 -0.24 C2.9 -0.45, 17.38 -1.26, 21.01 -1.58 M0.18 0.83 C3.52 0.48, 17.11 -2.03, 20.58 -2.48" stroke="#ffd43b" stroke-width="4" fill="none"></path></g></g><mask></mask></svg>