<svg width="18" height="18" viewBox="0 0 18 18" fill="none" xmlns="http://www.w3.org/2000/svg">
<path d="M9 0C13.9703 0 18 4.02973 18 9C18 13.9708 13.9703 18 9 18C4.02973 18 -3.52411e-07 13.9708 -3.52411e-07 9C6.14353e-05 4.02973 4.0298 0 9 0ZM6.47894 15.8563C6.53072 15.152 6.58861 14.2796 6.59201 13.9263C6.6145 13.6552 6.64379 12.9656 7.29849 12.5252C4.6992 12.3075 3.46228 10.8709 3.37336 8.97244C3.29909 7.89134 3.72889 6.94068 4.49215 6.17346C4.45335 5.35279 4.51693 4.38019 4.56976 3.95275C5.15588 3.784 6.52274 4.50568 6.90472 4.8145C7.71024 4.50173 9.68177 4.39206 10.8799 4.8145C11.7293 4.21714 12.6962 3.84814 13.2233 3.95108C13.7098 5.0294 13.3971 6.04865 13.302 6.17012C13.9287 6.74277 14.8028 7.44758 14.5654 8.92413C14.1846 11.0892 12.6614 12.257 10.2089 12.5427C10.732 12.6496 10.8203 13.0399 10.8642 13.2092C12.5112 13.8887 12.982 12.7896 13.1901 12.5033C13.8814 11.6477 14.5019 11.8958 14.5401 11.9093C14.5773 11.9227 14.6054 11.9767 14.6014 12.0026C14.5666 12.1871 14.1902 12.3745 14.1717 12.3896C13.6615 12.7699 13.4725 13.4567 13.3561 13.6524C12.6243 14.8556 10.9233 14.3567 10.907 14.3668C10.9058 14.472 10.9188 15.3574 10.9289 16.0465C14.0304 15.1993 16.3125 12.3699 16.3125 9C16.3125 4.96125 13.0388 1.68755 9.00006 1.68755C4.96137 1.68755 1.68755 4.96125 1.68755 9C1.68755 12.1517 3.6844 14.8286 6.47894 15.8563Z" fill="#020004"/>
</svg>
