<svg width="289" height="87" viewBox="0 0 289 87" fill="none" xmlns="http://www.w3.org/2000/svg">
<path d="M256.5 7.5L101 36.5L48.5 70L285.734 82.2213L256.5 7.5Z" fill="white" stroke="white"/>
<path d="M135.036 55.2937L133.001 58.9868C132.958 58.9361 132.894 58.8799 132.81 58.8183C132.739 58.7559 132.586 58.6518 132.35 58.5062C132.127 58.3597 131.892 58.2406 131.646 58.149C131.413 58.0566 131.123 58.0012 130.774 57.9827C130.425 57.9509 130.087 57.9919 129.76 58.1057C129.432 58.2062 129.078 58.4219 128.698 58.7527C128.317 59.0702 127.963 59.4996 127.636 60.0409C127.612 60.0958 127.591 60.1773 127.571 60.2854C127.551 60.3935 127.517 60.6027 127.469 60.9129C127.434 61.209 127.412 61.4976 127.403 61.7787C127.407 62.059 127.44 62.3775 127.502 62.7344C127.564 63.0779 127.662 63.379 127.799 63.6377C127.947 63.8823 128.168 64.1024 128.461 64.298C128.753 64.4803 129.113 64.5849 129.542 64.6117C130.12 64.656 130.671 64.6085 131.197 64.469C131.735 64.3154 132.171 64.128 132.504 63.907C132.85 63.6718 133.156 63.4324 133.422 63.1888C133.687 62.9452 133.881 62.7395 134.005 62.5715L134.168 62.3009L137.451 64.1813C137.391 64.2919 137.307 64.4441 137.199 64.6378C137.103 64.8174 136.883 65.1516 136.539 65.6405C136.208 66.1153 135.854 66.538 135.476 66.9088C135.111 67.2787 134.646 67.6282 134.078 67.9573C133.511 68.2864 132.941 68.4687 132.369 68.5042C132.262 68.5108 132.096 68.5211 131.87 68.5351C131.564 68.5674 131.245 68.5872 130.912 68.5946C130.591 68.6011 130.264 68.608 129.931 68.6153C129.611 68.6218 129.282 68.6021 128.945 68.5562C128.622 68.5095 128.298 68.4561 127.974 68.396C127.663 68.3352 127.349 68.2277 127.032 68.0737C126.729 67.9322 126.432 67.7703 126.14 67.588C125.861 67.3916 125.592 67.1478 125.333 66.8565C125.087 66.5512 124.859 66.218 124.65 65.8569C124.44 65.4825 124.252 65.0466 124.088 64.5492C123.923 64.0384 123.788 63.4791 123.683 62.871C123.522 61.986 123.47 61.1609 123.53 60.3958C123.588 59.6173 123.728 58.9608 123.949 58.4261C124.169 57.8914 124.427 57.4079 124.72 56.9755C125.027 56.529 125.345 56.1753 125.677 55.9143C126.008 55.6533 126.308 55.4343 126.578 55.2573C126.86 55.0794 127.093 54.9514 127.275 54.8733L127.55 54.7762C127.668 54.7421 127.819 54.6994 128.003 54.6479C128.2 54.5956 128.589 54.5247 129.172 54.4351C129.766 54.3314 130.351 54.2818 130.926 54.2862C131.5 54.2774 132.166 54.3563 132.924 54.523C133.695 54.6755 134.399 54.9325 135.036 55.2937ZM143.416 53.0908L148.243 67.9204L145.049 68.1185L144.34 66.3791L140.747 66.6019L140.258 68.4156L137.264 68.6013L140.122 53.2951L143.416 53.0908ZM141.84 62.9071L143.178 62.8242L142.491 59.5003L142.251 59.5152L141.84 62.9071ZM150.919 53.8878L155.407 53.87L155.996 64.6542L161.177 64.1926L161.598 68.3946L151.481 68.7616L150.919 53.8878ZM170.967 53.0653L168.932 56.7583C168.889 56.7076 168.825 56.6514 168.741 56.5898C168.67 56.5274 168.517 56.4234 168.281 56.2777C168.058 56.1312 167.823 56.0122 167.577 55.9206C167.344 55.8281 167.054 55.7727 166.705 55.7542C166.356 55.7225 166.018 55.7635 165.691 55.8772C165.363 55.9777 165.009 56.1934 164.629 56.5242C164.248 56.8418 163.894 57.2712 163.567 57.8125C163.543 57.8673 163.522 57.9488 163.502 58.057C163.482 58.1651 163.448 58.3742 163.4 58.6844C163.365 58.9805 163.343 59.2691 163.334 59.5502C163.338 59.8305 163.371 60.1491 163.433 60.5059C163.495 60.8494 163.593 61.1505 163.73 61.4093C163.878 61.6539 164.099 61.874 164.392 62.0695C164.684 62.2518 165.044 62.3564 165.473 62.3832C166.05 62.4276 166.602 62.38 167.128 62.2405C167.666 62.0869 168.102 61.8996 168.435 61.6785C168.781 61.4433 169.087 61.2039 169.353 60.9603C169.618 60.7168 169.812 60.511 169.936 60.3431L170.099 60.0724L173.382 61.9528C173.322 62.0634 173.238 62.2156 173.13 62.4093C173.034 62.5889 172.814 62.9232 172.47 63.412C172.139 63.8868 171.785 64.3095 171.407 64.6803C171.042 65.0502 170.576 65.3998 170.009 65.7288C169.442 66.0579 168.872 66.2402 168.3 66.2757C168.193 66.2823 168.027 66.2926 167.801 66.3067C167.495 66.339 167.176 66.3588 166.842 66.3661C166.522 66.3726 166.195 66.3795 165.862 66.3868C165.542 66.3933 165.213 66.3736 164.876 66.3277C164.553 66.281 164.229 66.2276 163.905 66.1676C163.594 66.1067 163.28 65.9993 162.963 65.8452C162.66 65.7037 162.363 65.5418 162.071 65.3595C161.792 65.1631 161.523 64.9193 161.264 64.6281C161.018 64.3227 160.79 63.9895 160.581 63.6284C160.371 63.2541 160.183 62.8182 160.019 62.3207C159.854 61.81 159.719 61.2506 159.614 60.6425C159.453 59.7575 159.401 58.9324 159.461 58.1673C159.519 57.3889 159.659 56.7323 159.88 56.1976C160.1 55.6629 160.358 55.1794 160.651 54.747C160.958 54.3006 161.276 53.9468 161.607 53.6858C161.939 53.4248 162.239 53.2058 162.509 53.0288C162.791 52.8509 163.024 52.723 163.206 52.6449L163.481 52.5477C163.599 52.5136 163.75 52.4709 163.934 52.4194C164.131 52.3671 164.52 52.2962 165.103 52.2066C165.697 52.1029 166.282 52.0533 166.857 52.0578C167.431 52.0489 168.097 52.1278 168.855 52.2945C169.626 52.4471 170.33 52.704 170.967 53.0653ZM175.442 52.8478L176.576 61.4341C176.631 61.8849 176.714 62.2605 176.826 62.5608C176.951 62.847 177.157 63.0546 177.446 63.1836C177.514 63.2061 177.615 63.2199 177.749 63.2249C177.882 63.2167 178.035 63.2072 178.208 63.1965C178.394 63.1716 178.52 63.1571 178.586 63.153C179.293 63.1358 179.696 62.7368 179.794 61.9559C179.795 61.7554 179.796 61.6552 179.796 61.6552L178.746 52.8032L181.83 52.7723L182.685 61.7165C182.686 61.7298 182.689 61.7764 182.694 61.8562C182.741 62.6148 182.57 63.3133 182.182 63.9519C181.358 65.3122 180.13 66.1832 178.497 66.565C177.048 66.8953 175.75 66.5284 174.602 65.4641C173.736 64.6494 173.213 63.6465 173.032 62.4554L171.785 53.0145L175.442 52.8478ZM186.85 51.6593L191.338 51.6415L191.927 62.4258L197.108 61.9641L197.529 66.1661L187.412 66.5331L186.85 51.6593ZM203.301 49.3767L208.128 64.2063L204.934 64.4044L204.225 62.6649L200.632 62.8878L200.143 64.7015L197.149 64.8872L200.007 49.5809L203.301 49.3767ZM201.725 59.193L203.063 59.1101L202.376 55.7862L202.136 55.8011L201.725 59.193ZM211.073 49.9767L217.916 48.8509L218.291 51.9937L216.007 52.3157L217.466 63.2464L214.971 63.7218L213.383 52.6588L211.3 52.9884L211.073 49.9767ZM222.034 49.3369C223.039 48.7403 224.121 48.406 225.278 48.3342C226.662 48.2484 227.956 48.5355 229.159 49.1956C230.361 49.8424 231.306 50.7457 231.992 51.9054C232.575 52.898 232.902 53.9797 232.975 55.1508C233.057 56.4683 232.806 57.7062 232.223 58.8645C231.653 60.0086 230.829 60.9348 229.751 61.6429C228.673 62.3643 227.476 62.7658 226.158 62.8476C224.854 62.9284 223.623 62.6775 222.465 62.0948C221.307 61.5253 220.368 60.7085 219.648 59.6444C218.94 58.5662 218.545 57.3684 218.463 56.0509C218.377 54.6669 218.658 53.3737 219.304 52.1714C219.965 50.9682 220.874 50.0234 222.034 49.3369ZM227.75 58.14C228.237 57.3751 228.474 56.4586 228.461 55.3907C228.461 54.3086 228.204 53.3961 227.69 52.6532C227.189 51.8961 226.585 51.5194 225.877 51.5233C225.182 51.5263 224.592 51.9102 224.105 52.6752C223.618 53.4401 223.375 54.3636 223.375 55.4457C223.388 56.5136 223.645 57.4261 224.146 58.1832C224.66 58.9395 225.265 59.3161 225.959 59.3131C226.666 59.296 227.263 58.9049 227.75 58.14ZM239.849 48.3723C239.904 48.409 239.981 48.4643 240.079 48.5384C240.19 48.5983 240.38 48.7602 240.651 49.024C240.921 49.2877 241.166 49.5798 241.386 49.9001C241.62 50.2196 241.847 50.6597 242.069 51.2203C242.29 51.7677 242.44 52.3595 242.52 52.9958C242.6 53.6321 242.582 54.2143 242.468 54.7424C242.354 55.2705 242.179 55.6888 241.945 55.9972C241.722 56.2915 241.491 56.5463 241.251 56.7616C241.023 56.9628 240.824 57.102 240.655 57.1793L240.382 57.2964L243.674 63.8452L239.262 64.1188L236.946 58.1107L235.976 58.3111L236.229 64.0064L232.981 64.288L232.111 48.9725L239.849 48.3723ZM238.596 54.0207C238.625 53.6315 238.565 53.3013 238.414 53.0301C238.277 52.758 238.085 52.5629 237.837 52.4447C237.602 52.3256 237.343 52.2349 237.059 52.1723C236.774 52.1098 236.513 52.0927 236.274 52.1208C236.035 52.149 235.843 52.1743 235.697 52.1966L235.812 55.015C235.879 55.0241 235.974 55.045 236.096 55.0775C236.218 55.0967 236.432 55.1101 236.74 55.1177C237.048 55.1253 237.321 55.1084 237.559 55.0669C237.81 55.0246 238.037 54.917 238.24 54.7441C238.455 54.5571 238.574 54.316 238.596 54.0207Z" fill="#020004"/>
<path d="M135.263 33.8536L143.339 32.8332L143.857 36.6181L139.696 37.1843L140.003 39.1411L143.932 38.6447L144.36 41.554L140.216 42.2591L141.295 49.6824L137.168 50.2038L135.263 33.8536ZM148.707 34.957L150.386 43.4537C150.469 43.9001 150.576 44.2696 150.707 44.5621C150.85 44.8398 151.069 45.0338 151.365 45.1442C151.435 45.1623 151.537 45.1696 151.671 45.1661C151.803 45.1494 151.955 45.1302 152.127 45.1085C152.31 45.0718 152.435 45.0493 152.501 45.041C153.206 44.9789 153.582 44.555 153.631 43.7694C153.619 43.5693 153.613 43.4692 153.613 43.4692L152.001 34.7021L155.077 34.4748L156.501 43.3463C156.502 43.3596 156.508 43.4059 156.518 43.4852C156.613 44.2392 156.488 44.9472 156.141 45.6092C155.406 47.0192 154.235 47.9667 152.63 48.4518C151.205 48.8737 149.886 48.5902 148.672 47.6012C147.757 46.8433 147.171 45.8758 146.914 44.6986L145.069 35.3563L148.707 34.957ZM166.855 33.7124L165.124 35.9672C165.064 35.921 164.981 35.8508 164.875 35.7567C164.769 35.6626 164.577 35.5255 164.299 35.3457C164.034 35.1641 163.781 35.0214 163.539 34.9175C163.311 34.812 163.071 34.7751 162.82 34.8068C162.569 34.8386 162.377 34.9703 162.245 35.202C161.927 35.7664 161.924 36.2237 162.237 36.5739C162.407 36.7539 162.623 36.8611 162.882 36.8955C163.155 36.9282 163.443 36.9725 163.746 37.0283C164.062 37.0825 164.479 37.1977 164.999 37.3739C165.532 37.5485 165.995 37.7588 166.389 38.0047C166.783 38.2506 167.136 38.5957 167.447 39.0402C167.757 39.4714 167.925 39.9541 167.953 40.4883C168.046 42.1833 167.848 43.5454 167.36 44.5747C166.87 45.5908 166.074 46.2021 164.971 46.4087C163.906 46.597 162.9 46.4486 161.952 45.9637C161.005 45.4919 160.237 44.8364 159.647 43.9971L161.301 41.4497C161.347 41.4976 161.41 41.5702 161.489 41.6677C161.581 41.7503 161.74 41.8981 161.969 42.1111C162.196 42.3109 162.407 42.4926 162.602 42.656C162.811 42.8178 163.023 42.959 163.24 43.0794C163.469 43.1849 163.649 43.2293 163.781 43.2126C164.137 43.1543 164.51 42.9727 164.902 42.6679C165.196 42.4426 165.334 42.1497 165.315 41.7892C165.271 41.1227 164.637 40.7325 163.413 40.6183C161.986 40.4896 160.918 40.0734 160.211 39.3698C159.516 38.6513 159.251 37.5627 159.416 36.1038C159.463 35.6274 159.512 35.218 159.563 34.8756C159.627 34.5316 159.71 34.1784 159.812 33.8161C159.926 33.4388 160.048 33.1344 160.18 32.9027C160.324 32.6561 160.503 32.4251 160.718 32.2098C160.931 31.9813 161.179 31.8156 161.461 31.7127C161.742 31.5966 162.076 31.5209 162.461 31.4856C162.858 31.4355 163.294 31.4341 163.771 31.4814C163.797 31.4781 163.824 31.4814 163.852 31.4912C163.892 31.4862 163.99 31.5142 164.145 31.5752C164.314 31.6345 164.501 31.7318 164.706 31.8672C164.912 32.0025 165.203 32.2345 165.58 32.5631C165.97 32.8768 166.394 33.2599 166.855 33.7124ZM172.836 30.6384L175.952 30.2448L178.11 45.5751L174.774 45.9764L172.836 30.6384ZM183.076 29.9897C184.041 29.3302 185.099 28.9278 186.25 28.7824C187.625 28.6085 188.935 28.8127 190.177 29.3948C191.418 29.9638 192.418 30.805 193.177 31.9187C193.822 32.8721 194.218 33.9308 194.365 35.0949C194.53 36.4045 194.359 37.6558 193.851 38.8489C193.355 40.027 192.592 41.0038 191.561 41.7791C190.531 42.5677 189.362 43.0447 188.052 43.2102C186.756 43.374 185.511 43.202 184.318 42.6942C183.127 42.1996 182.138 41.4443 181.351 40.4283C180.575 39.3974 180.105 38.2271 179.94 36.9175C179.766 35.5418 179.963 34.2334 180.532 32.9923C181.114 31.7495 181.962 30.7486 183.076 29.9897ZM189.341 38.4108C189.778 37.6164 189.956 36.6867 189.876 35.6218C189.806 34.542 189.492 33.6477 188.932 32.9389C188.383 32.2153 187.756 31.8779 187.05 31.9268C186.357 31.9741 185.792 32.3949 185.355 33.1893C184.918 33.9837 184.734 34.9208 184.803 36.0006C184.884 37.0656 185.198 37.9599 185.747 38.6835C186.308 39.4055 186.936 39.7428 187.628 39.6956C188.333 39.6335 188.904 39.2052 189.341 38.4108ZM197.286 41.6202L194.416 42.0433L193.716 28.6856L197.323 28.1897L201.296 36.9809L200.16 27.5087L203.101 27.1773L204.013 40.9316L199.833 41.3588L196.359 32.686L197.286 41.6202Z" fill="#020004"/>
<path d="M64.1286 0.00832989C64.1604 0.00827868 64.1921 0.00822748 64.2248 0.00817472C64.332 0.00804003 64.4392 0.00812763 64.5464 0.00821272C64.624 0.00816158 64.7016 0.00809688 64.7793 0.00801979C64.949 0.00788282 65.1188 0.00784307 65.2885 0.00788729C65.5426 0.00795299 65.7967 0.00784113 66.0508 0.00769451C66.4839 0.00745007 66.9169 0.00735447 67.35 0.00733948C67.789 0.0073239 68.228 0.00724192 68.667 0.00707868C68.6947 0.00706844 68.7224 0.0070582 68.7509 0.00704765C68.8637 0.00700578 68.9765 0.00696351 69.0893 0.00692072C70.4257 0.00641476 71.762 0.00621693 73.0983 0.00606933C73.7635 0.00599544 74.4287 0.00588058 75.0938 0.00575799C77.2267 0.00536516 79.3595 0.00503064 81.4923 0.00492544C81.5943 0.00492041 81.6962 0.00491528 81.7982 0.00491011C82.0027 0.00489975 82.2072 0.0048895 82.4117 0.00487926C82.6511 0.00486726 82.8905 0.00485517 83.1299 0.00484293C83.1984 0.00483945 83.2669 0.00483599 83.3354 0.00483257C85.5369 0.00472243 87.7384 0.00425455 89.9399 0.00353172C91.5216 0.0030126 93.1033 0.00253248 94.685 0.00239225C94.7175 0.00238935 94.75 0.00238646 94.7835 0.00238347C95.4971 0.00232085 96.2106 0.00228498 96.9242 0.00227402C97.1795 0.00226979 97.4348 0.00226331 97.6902 0.00225561C97.7537 0.0022537 97.8172 0.0022519 97.8807 0.00225019C98.8939 0.00222163 99.907 0.00191209 100.92 0.00146053C101.94 0.00100771 102.96 0.000850445 103.98 0.00110133C104.121 0.00113592 104.262 0.00116727 104.403 0.00119669C104.43 0.00120258 104.458 0.00120847 104.486 0.00121454C104.924 0.00129949 105.362 0.00107112 105.8 0.000713623C106.23 0.000368953 106.66 0.000353769 107.09 0.000694088C107.343 0.00088384 107.595 0.000816495 107.848 0.000376086C108.035 7.80698e-05 108.222 0.000260656 108.409 0.000636962C108.484 0.000712991 108.56 0.000630468 108.635 0.000376516C108.737 5.57675e-05 108.839 0.000302183 108.941 0.000696366C108.971 0.000466565 109 0.000236764 109.031 0C109.22 0.00155158 109.358 0.0282495 109.504 0.157689C109.557 0.264193 109.558 0.362747 109.54 0.477567C109.495 0.575209 109.436 0.659582 109.374 0.746798C109.356 0.771974 109.339 0.79715 109.321 0.823088C109.266 0.903449 109.21 0.983245 109.154 1.06304C109.117 1.11543 109.081 1.16785 109.045 1.22032C108.972 1.32517 108.9 1.42984 108.827 1.53438C108.531 1.95811 108.246 2.38849 107.959 2.81769C107.678 3.2378 107.397 3.65766 107.113 4.07572C106.855 4.45521 106.6 4.83627 106.345 5.21758C106.047 5.66417 105.748 6.11053 105.445 6.55469C105.31 6.7536 105.175 6.95293 105.043 7.15358C104.975 7.25584 104.907 7.35788 104.839 7.4599C104.806 7.50866 104.774 7.55751 104.742 7.60648C104.301 8.28074 104.301 8.28074 103.921 8.41831C103.89 8.42982 103.86 8.44134 103.829 8.4532C103.677 8.50043 103.541 8.51525 103.382 8.51527C103.341 8.51536 103.3 8.51544 103.257 8.51552C103.211 8.51546 103.166 8.51539 103.12 8.51532C103.071 8.51536 103.022 8.51541 102.974 8.51547C102.839 8.51561 102.704 8.51556 102.57 8.51547C102.423 8.51541 102.277 8.51553 102.131 8.51564C101.874 8.51579 101.618 8.51583 101.361 8.51579C100.98 8.51574 100.598 8.51587 100.217 8.51604C99.6147 8.51631 99.0124 8.51648 98.4101 8.51658C97.4543 8.51674 96.4984 8.51722 95.5426 8.5178C95.3393 8.51793 95.136 8.51805 94.9326 8.51817C94.8921 8.5182 94.8516 8.51822 94.8098 8.51824C94.7277 8.51829 94.6456 8.51834 94.5634 8.51839C94.481 8.51844 94.3986 8.51849 94.3161 8.51854C93.3652 8.51911 92.4142 8.51963 91.4633 8.52011C91.3988 8.52014 91.3343 8.52017 91.2699 8.52021C90.2767 8.5207 89.2835 8.52111 88.2903 8.52129C88.2583 8.5213 88.2583 8.5213 88.2256 8.52131C87.8811 8.52137 87.5366 8.52143 87.1921 8.52148C85.7517 8.52173 84.3114 8.52237 82.8711 8.52353C82.6709 8.52369 82.4706 8.52384 82.2704 8.524C82.231 8.52403 82.1916 8.52406 82.151 8.52409C81.5158 8.52456 80.8806 8.52458 80.2454 8.52444C79.6075 8.52431 78.9696 8.52461 78.3316 8.52537C77.9523 8.52581 77.5729 8.52591 77.1936 8.5255C76.9405 8.52527 76.6874 8.52548 76.4343 8.52606C76.2899 8.52638 76.1455 8.5265 76.0011 8.52607C75.8699 8.52569 75.7386 8.52587 75.6074 8.52652C75.5601 8.52665 75.5128 8.52657 75.4655 8.52626C75.4014 8.52587 75.3374 8.52632 75.2733 8.52681C75.2378 8.52682 75.2023 8.52683 75.1657 8.52685C75.0174 8.55023 74.9175 8.62083 74.8211 8.73246C74.8056 8.75594 74.7902 8.77942 74.7742 8.80362C74.7565 8.83008 74.7388 8.85654 74.7206 8.88381C74.7024 8.91188 74.6842 8.93996 74.6654 8.96889C74.6368 9.01229 74.6368 9.01229 74.6076 9.05657C74.5689 9.11544 74.5303 9.17442 74.492 9.2335C74.4419 9.31032 74.3908 9.38644 74.3393 9.4624C74.3108 9.50531 74.2823 9.54824 74.2538 9.5912C74.2342 9.61976 74.2342 9.61976 74.2142 9.6489C74.1226 9.7902 74.0976 9.89796 74.0903 10.0623C74.139 10.1959 74.1908 10.2656 74.3109 10.3415C74.3892 10.3683 74.3892 10.3683 74.4768 10.386C74.5284 10.3976 74.5284 10.3976 74.581 10.4094C74.6384 10.4219 74.6384 10.4219 74.6969 10.4345C74.7384 10.4438 74.7799 10.453 74.8214 10.4624C74.94 10.4889 75.0586 10.5151 75.1772 10.5412C77.1799 10.9823 79.167 11.4772 81.1172 12.1095C81.1442 12.1183 81.1712 12.127 81.199 12.136C83.3945 12.8485 85.5928 13.6977 87.5904 14.8545C87.673 14.9022 87.7561 14.949 87.8392 14.9958C88.9731 15.6386 90.0576 16.401 91.0199 17.2746C91.0866 17.3343 91.154 17.3923 91.2224 17.4501C91.3802 17.5857 91.5274 17.731 91.6751 17.877C91.7022 17.9035 91.7293 17.9301 91.7571 17.9574C91.9143 18.1123 92.0646 18.2707 92.2088 18.4373C92.2355 18.4672 92.2621 18.4971 92.2896 18.5279C94.1972 20.7067 95.1746 23.4789 94.9975 26.4778C94.8567 28.1665 94.3282 29.7386 93.5638 31.2479C93.5505 31.2743 93.5371 31.3006 93.5234 31.3277C92.9869 32.3805 92.291 33.3595 91.5289 34.2653C91.4655 34.3409 91.403 34.4171 91.3403 34.4933C91.0521 34.8389 90.753 35.1723 90.4409 35.4972C90.3778 35.5631 90.315 35.6291 90.2522 35.6952C89.6647 36.3133 89.6647 36.3133 89.3728 36.559C89.3016 36.6214 89.2349 36.687 89.1681 36.7537C89.0631 36.8583 88.9553 36.9567 88.842 37.0524C88.7622 37.1207 88.6846 37.1911 88.6068 37.2617C88.4662 37.3879 88.3216 37.5075 88.1735 37.6252C88.0695 37.709 87.9679 37.7954 87.8663 37.882C87.6686 38.0499 87.4656 38.2098 87.2591 38.3671C87.1945 38.4164 87.1301 38.4661 87.0659 38.5158C86.7502 38.7596 86.4302 38.9967 86.1059 39.2292C86.0357 39.2797 85.9656 39.3304 85.8955 39.3812C85.5374 39.6397 85.1692 39.8822 84.7987 40.1231C84.7176 40.1759 84.6368 40.2291 84.5561 40.2824C84.2225 40.5032 83.8847 40.7166 83.5435 40.9257C83.5127 40.9446 83.482 40.9635 83.4504 40.9829C82.9414 41.2953 82.4266 41.596 81.9049 41.8873C81.8563 41.9145 81.8563 41.9145 81.8066 41.9423C80.2227 42.8265 78.5961 43.6417 76.932 44.3697C76.8606 44.401 76.7891 44.4324 76.7178 44.4639C74.8886 45.2698 73.0208 45.9848 71.1284 46.6331C71.0988 46.6433 71.0692 46.6534 71.0387 46.6639C68.7672 47.4422 66.4639 48.1274 64.133 48.7114C64.0943 48.7211 64.0556 48.7308 64.0158 48.7408C62.6831 49.0749 61.345 49.3791 60.0002 49.6622C59.8159 49.7011 59.632 49.7408 59.4485 49.7832C59.2551 49.8275 59.0609 49.8645 58.8655 49.8993C58.8295 49.9058 58.7934 49.9123 58.7563 49.919C58.6369 49.9404 58.5175 49.9618 58.3981 49.9831C58.3113 49.9987 58.2245 50.0143 58.1376 50.03C57.8873 50.0749 57.637 50.1197 57.3867 50.1645C57.2922 50.1814 57.1978 50.1983 57.1034 50.2152C57.0115 50.2317 56.9196 50.2481 56.8277 50.2646C56.7843 50.2723 56.741 50.2801 56.6976 50.2879C56.6375 50.2986 56.5774 50.3094 56.5173 50.3201C56.4664 50.3292 56.4664 50.3292 56.4144 50.3385C56.3195 50.3552 56.2245 50.3709 56.1294 50.3864C56.0889 50.393 56.0889 50.393 56.0475 50.3998C53.5455 50.8092 51.0346 51.1453 43.772 51.732C43.5488 51.7444 43.3257 51.7574 43.1027 51.7715C42.5396 51.8068 41.9772 51.8243 41.4131 51.8337C41.3701 51.8344 41.3701 51.8344 41.3263 51.8352C41.2739 51.8361 41.2216 51.8369 41.1693 51.8376C41.0379 51.8398 40.9068 51.8442 40.7755 51.8515C40.3563 51.8748 39.9385 51.8798 39.5186 51.8794C39.4458 51.8794 39.373 51.8794 39.3002 51.8795C39.1478 51.8795 38.9954 51.8794 38.843 51.8793C38.6532 51.8791 38.4634 51.8792 38.2736 51.8794C36.8626 51.8805 35.452 51.8628 34.042 51.8083C33.9672 51.8054 33.8925 51.8025 33.8178 51.7997C32.9776 51.7677 32.1384 51.723 31.2992 51.6717C31.2721 51.67 31.2449 51.6684 31.217 51.6667C30.897 51.6472 30.5772 51.6268 30.2574 51.6046C30.178 51.5992 30.0986 51.5939 30.0192 51.5888C29.9213 51.5824 29.8235 51.5754 29.7256 51.5681C29.6986 51.5665 29.6716 51.5648 29.6437 51.5632C29.4809 51.5499 29.3815 51.5143 29.251 51.41C29.1689 51.3035 29.1773 51.1988 29.188 51.0688C29.2237 50.986 29.2726 50.9142 29.3239 50.84C29.338 50.8187 29.3522 50.7973 29.3668 50.7753C29.3967 50.7302 29.4269 50.6852 29.4573 50.6403C29.5163 50.5529 29.5739 50.4646 29.6316 50.3763C29.6896 50.2875 29.7481 50.199 29.8066 50.1105C30.0218 49.7845 30.2357 49.4577 30.4484 49.1301C30.6602 48.8041 30.8732 48.4789 31.0872 48.1542C31.2967 47.8364 31.5045 47.5175 31.7119 47.1983C31.8444 46.9943 31.9775 46.7907 32.1114 46.5876C32.2406 46.3913 32.3686 46.1943 32.4966 45.9972C32.6511 45.7592 32.8062 45.5216 32.9624 45.2846C33.0902 45.0904 33.2168 44.8953 33.3434 44.7003C33.5123 44.4401 33.6823 44.1807 33.8536 43.9221C34.0122 43.6823 34.1687 43.4412 34.3251 43.2C34.4803 42.961 34.6369 42.7228 34.7946 42.4853C34.8563 42.3923 34.9174 42.2997 34.9743 42.2038C35.1569 41.9141 35.4392 41.763 35.7678 41.6839C35.8752 41.6625 35.9826 41.6576 36.0918 41.6542C36.1162 41.6532 36.1406 41.6522 36.1657 41.6512C36.2465 41.6481 36.3273 41.6452 36.4082 41.6424C36.4661 41.6402 36.5241 41.6379 36.5821 41.6356C36.7063 41.6308 36.8306 41.626 36.9548 41.6213C37.2884 41.6088 37.6218 41.595 37.9553 41.5811C37.9893 41.5797 38.0234 41.5783 38.0585 41.5768C40.7752 41.4635 43.4864 41.2616 46.4872 40.9567C46.5099 40.9544 46.5326 40.9521 46.556 40.9497C49.3198 40.6663 52.0738 40.278 56.5705 39.4368C56.6039 39.4301 56.6372 39.4234 56.6715 39.4165C58.3413 39.0795 60.0054 38.6909 61.6437 38.2271C61.6726 38.2189 61.7014 38.2108 61.7312 38.2024C63.7327 37.6357 65.7097 36.9879 67.6182 36.164C67.6887 36.1336 67.7592 36.1034 67.8298 36.0734C68.8007 35.6607 69.766 35.2043 70.6757 34.6724C70.7502 34.629 70.8251 34.5863 70.9 34.5438C71.7898 34.0338 72.6376 33.447 73.4286 32.7989C73.4639 32.7703 73.4991 32.7417 73.5343 32.7131C74.0552 32.2877 74.58 31.8256 74.9991 31.3013C75.061 31.2245 75.1254 31.1504 75.1908 31.0765C76.2178 29.9114 76.8502 28.4784 77.1153 26.9674C77.1196 26.9439 77.1238 26.9203 77.1281 26.8961C77.2492 26.1887 77.2384 25.3726 77.0838 24.672C77.0776 24.6434 77.0713 24.6149 77.0648 24.5854C76.9683 24.1599 76.8302 23.7638 76.6427 23.3692C76.6334 23.3493 76.6241 23.3294 76.6145 23.3088C76.1881 22.4012 75.4824 21.5975 74.689 20.9808C74.6352 20.9362 74.5814 20.8916 74.5275 20.847C74.124 20.523 73.6874 20.2484 73.2395 19.9882C73.2038 19.9673 73.1681 19.9464 73.1312 19.9248C72.0865 19.3253 70.9765 18.8603 69.8364 18.4683C69.7972 18.4548 69.7579 18.4413 69.7175 18.4274C66.7032 17.3957 63.5261 16.8584 54.5147 15.9587C54.4772 15.9566 54.4396 15.9545 54.4009 15.9523C54.2263 15.9425 54.0516 15.9331 53.8769 15.9244C53.8457 15.9228 53.8145 15.9211 53.7823 15.9194C53.7253 15.9164 53.6683 15.9136 53.6112 15.911C53.167 15.8872 53.167 15.8872 53.0256 15.7619C52.9705 15.6626 52.9468 15.6044 52.9468 15.4905C53.042 15.2727 53.1776 15.0805 53.312 14.8847C53.3538 14.8237 53.3955 14.7626 53.4371 14.7015C53.4962 14.6148 53.5553 14.5282 53.6145 14.4416C53.7541 14.2372 53.8931 14.0322 54.032 13.8272C54.0529 13.7964 54.0529 13.7964 54.0742 13.7649C54.3785 13.3158 54.6803 12.865 54.9817 12.4139C55.2367 12.0323 55.4934 11.6518 55.7513 11.272C55.7658 11.2506 55.7803 11.2292 55.7953 11.2072C55.822 11.1677 55.8488 11.1283 55.8756 11.0889C56.2626 10.5188 56.647 9.94704 57.0298 9.37418C57.2123 9.10114 57.3953 8.82848 57.5797 8.55668C57.7241 8.34394 57.8676 8.13075 58.0103 7.91692C58.0278 7.89075 58.0452 7.86457 58.0632 7.8376C58.0992 7.78372 58.1351 7.72984 58.1711 7.67596C58.5297 7.13851 58.8927 6.6041 59.259 6.07164C59.4755 5.75671 59.6899 5.44125 59.8944 5.11855C60.09 4.81262 60.2976 4.51457 60.5034 4.2153C60.8017 3.78157 61.0979 3.34668 61.3897 2.90864C61.4541 2.81195 61.5185 2.71526 61.5829 2.61857C61.5985 2.59514 61.6141 2.57172 61.6302 2.54758C61.8224 2.25943 62.0165 1.97259 62.2113 1.6862C62.2394 1.64496 62.2674 1.60373 62.2955 1.56249C62.3161 1.53211 62.3161 1.53211 62.3372 1.50113C62.4235 1.37388 62.509 1.2461 62.5939 1.11788C62.6507 1.03204 62.7078 0.946361 62.7649 0.860694C62.7916 0.820524 62.8182 0.780269 62.8446 0.739922C63.1958 0.203252 63.1958 0.203252 63.5087 0.093713C63.5339 0.0845165 63.559 0.07532 63.5849 0.0658448C63.7681 0.0111454 63.9386 0.00789994 64.1286 0.00832989Z" fill="white"/>
<path d="M32.894 17.6775C32.9664 17.6774 33.0389 17.6772 33.1113 17.677C33.3098 17.6766 33.5083 17.677 33.7067 17.6775C33.8991 17.6779 34.0914 17.6777 34.2838 17.6775C34.6776 17.6771 35.0714 17.6773 35.4652 17.6778C35.8564 17.6783 36.2476 17.6786 36.6388 17.6786C36.6755 17.6786 36.6755 17.6786 36.7128 17.6786C36.812 17.6786 36.9111 17.6786 37.0103 17.6786C37.941 17.6786 38.8718 17.6792 39.8026 17.6801C40.6245 17.681 41.4464 17.6814 42.2683 17.6813C42.3208 17.6813 42.3733 17.6813 42.4258 17.6813C42.4518 17.6813 42.4778 17.6813 42.5045 17.6813C42.6353 17.6813 42.7661 17.6813 42.8969 17.6813C42.9227 17.6813 42.9485 17.6813 42.9751 17.6813C43.6659 17.6813 44.3567 17.6815 45.0474 17.6819C45.0721 17.6819 45.0968 17.682 45.1223 17.682C45.2216 17.682 45.3209 17.6821 45.4202 17.6821C45.7613 17.6823 46.1023 17.6824 46.4433 17.6825C50.464 17.6828 50.464 17.6828 52.2851 17.7549C52.3518 17.7574 52.4185 17.76 52.4852 17.7626C52.8185 17.7755 53.1517 17.7901 53.4848 17.8073C53.5609 17.8113 53.637 17.8151 53.7132 17.8189C57.0351 17.987 63.447 17.8189 71.4871 22.3633C71.5532 22.4237 71.62 22.4812 71.6897 22.5375C71.8102 22.6382 71.9092 22.754 72.0107 22.8729C72.0343 22.8993 72.058 22.9258 72.0824 22.953C72.9478 23.9368 73.4138 25.2306 73.3341 26.5331C73.2285 27.8516 72.6908 29.0146 71.8531 30.0382C71.8154 30.0849 71.8154 30.0849 71.7769 30.1326C71.5608 30.3936 71.3202 30.6314 71.0791 30.8699C71.0624 30.8865 71.0457 30.9031 71.0285 30.9202C70.8098 31.1372 70.5844 31.3371 70.3406 31.5271C70.2991 31.5607 70.2577 31.5945 70.2164 31.6284C68.7784 32.7988 67.0896 33.6938 65.3935 34.4428C65.3567 34.4591 65.3199 34.4753 65.2819 34.4921C64.2684 34.9372 63.2325 35.3283 62.1856 35.6906C62.1169 35.7144 62.0482 35.7383 61.9795 35.7622C59.2936 36.6941 56.5164 37.3667 52.4712 38.179C52.4154 38.1894 52.3596 38.2001 52.3039 38.2112C52.1955 38.2322 52.0867 38.251 51.9779 38.2697C51.9547 38.2737 51.9316 38.2778 51.9077 38.2819C51.809 38.299 51.7104 38.316 51.6117 38.333C51.5395 38.3455 51.4672 38.358 51.395 38.3705C51.3618 38.3763 51.3618 38.3763 51.3279 38.3821C51.2439 38.3966 51.16 38.4113 51.0764 38.4281C50.9874 38.4453 50.8983 38.4602 50.8087 38.4746C50.7534 38.4835 50.7534 38.4835 50.697 38.4926C50.6368 38.5022 50.6368 38.5022 50.5753 38.5121C50.5544 38.5154 50.5335 38.5187 50.512 38.5222C47.9588 38.9301 45.3957 39.251 39.4427 39.7237C39.4201 39.725 39.3975 39.7263 39.3743 39.7277C38.9041 39.7547 38.4339 39.7798 37.9633 39.7985C37.8165 39.8045 37.6704 39.8126 37.524 39.8255C37.2409 39.8488 36.9566 39.8492 36.6727 39.8538C36.5678 39.8556 36.4629 39.8575 36.358 39.8596C36.0705 39.8651 35.783 39.8707 35.4955 39.8745C35.4009 39.8758 35.3064 39.8776 35.2119 39.8796C35.1497 39.8807 35.0875 39.8812 35.0253 39.8817C34.6151 39.8909 34.2824 39.9996 33.9776 40.2743C33.9285 40.3346 33.8816 40.3967 33.8365 40.46C33.8233 40.4787 33.81 40.4973 33.7963 40.5164C33.6219 40.763 33.4551 41.0147 33.2879 41.266C33.1867 41.418 33.0852 41.5699 32.9838 41.7217C32.9636 41.752 32.9433 41.7823 32.9225 41.8136C32.7489 42.0735 32.5738 42.3324 32.3981 42.591C32.1452 42.9635 31.8941 43.3372 31.6439 43.7115C31.6262 43.7379 31.6086 43.7643 31.5904 43.7915C31.4995 43.9275 31.4087 44.0635 31.3178 44.1995C31.122 44.4925 30.9261 44.7854 30.73 45.0783C30.7105 45.1074 30.6911 45.1366 30.671 45.1666C30.4294 45.5274 30.1871 45.8876 29.9431 46.2468C29.7161 46.5813 29.4915 46.9174 29.2668 47.2535C28.9998 47.6527 28.7322 48.0515 28.4623 48.4488C28.2134 48.8156 27.9673 49.1843 27.7209 49.5528C27.4888 49.8997 27.2563 50.2463 27.0216 50.5916C26.8034 50.9131 26.5878 51.2363 26.3718 51.5592C26.1245 51.9288 25.8772 52.2984 25.6273 52.6662C25.3787 53.0321 25.1327 53.3997 24.8868 53.7674C24.6198 54.1666 24.3522 54.5655 24.0822 54.9629C23.8552 55.2975 23.6306 55.6336 23.4058 55.9697C23.1388 56.3689 22.8713 56.7677 22.6014 57.165C22.3525 57.5318 22.1064 57.9005 21.8599 58.269C21.6279 58.6159 21.3954 58.9625 21.1607 59.3078C20.9425 59.6293 20.7268 59.9525 20.5108 60.2754C20.2636 60.645 20.0163 61.0146 19.7664 61.3824C19.5178 61.7483 19.2718 62.1159 19.0259 62.4836C18.7281 62.9287 18.4299 63.3735 18.1286 63.8164C18.0511 63.9303 17.9743 64.0445 17.8981 64.1593C17.8636 64.2112 17.829 64.2631 17.7944 64.315C17.7518 64.3788 17.7095 64.4428 17.6673 64.5069C17.497 64.7615 17.3346 64.9528 17.0526 65.0852C16.9969 65.112 16.9969 65.112 16.9401 65.1393C16.7607 65.2131 16.5952 65.2177 16.4026 65.2174C16.3747 65.2175 16.3468 65.2176 16.3181 65.2177C16.2241 65.2179 16.1302 65.2179 16.0362 65.218C15.9684 65.2181 15.9006 65.2182 15.8327 65.2184C15.6459 65.2187 15.4591 65.2189 15.2723 65.2191C15.0709 65.2192 14.8696 65.2196 14.6683 65.2199C14.2049 65.2207 13.7416 65.2211 13.2783 65.2215C13.118 65.2216 12.9578 65.2218 12.7975 65.2219C11.9455 65.2227 11.0934 65.2234 10.2414 65.2238C10.044 65.2239 9.84669 65.224 9.64934 65.224C9.62482 65.2241 9.6003 65.2241 9.57504 65.2241C8.77963 65.2245 7.98423 65.2254 7.18882 65.2267C6.37121 65.228 5.55359 65.2289 4.73598 65.229C4.62056 65.229 4.50515 65.2291 4.38973 65.2291C4.35566 65.2291 4.35566 65.2291 4.3209 65.2291C3.95502 65.2292 3.58915 65.2299 3.22328 65.2307C2.85573 65.2315 2.48819 65.2317 2.12064 65.2314C1.92144 65.2312 1.72225 65.2313 1.52305 65.2321C1.34083 65.2328 1.15863 65.2328 0.976406 65.2322C0.910354 65.2321 0.844302 65.2323 0.778252 65.2327C0.688694 65.2333 0.599189 65.233 0.509633 65.2324C0.483785 65.2328 0.457941 65.2332 0.43131 65.2336C0.301967 65.2316 0.222209 65.2196 0.119883 65.1383C0.0214919 65.0384 0.0113375 65.0205 0 64.8809C0.00236419 64.7446 0.0500635 64.6531 0.127519 64.5424C0.141357 64.5216 0.155195 64.5008 0.169453 64.4794C0.22054 64.4031 0.272511 64.3274 0.324459 64.2516C0.367542 64.1879 0.410578 64.1242 0.453578 64.0604C0.529445 63.948 0.605432 63.8357 0.681692 63.7236C0.970852 63.2984 1.25655 62.8709 1.54226 62.4434C1.71302 62.188 1.88402 61.9328 2.05655 61.6785C2.27371 61.3585 2.48857 61.037 2.7035 60.7155C2.93325 60.3718 3.16324 60.0284 3.39538 59.6863C3.59679 59.3892 3.79597 59.0907 3.99542 58.7924C4.22518 58.4487 4.45517 58.1052 4.68731 57.7631C4.88872 57.466 5.0879 57.1675 5.28735 56.8692C5.72261 56.2182 5.72261 56.2182 5.93307 55.908C6.1513 55.5864 6.36722 55.2633 6.58322 54.9402C6.82418 54.5799 7.06521 54.2196 7.3088 53.8609C7.4503 53.6526 7.59163 53.4441 7.73297 53.2356C7.77123 53.1792 7.8095 53.1228 7.84778 53.0664C8.04978 52.7688 8.25085 52.4708 8.44776 52.1699C8.6219 51.904 8.79903 51.6401 8.97599 51.3761C9.03497 51.288 9.09392 51.2 9.15286 51.1119C9.32899 50.8489 9.50544 50.5861 9.68318 50.3242C9.89995 50.0047 10.1144 49.6837 10.329 49.3627C10.5588 49.0191 10.7888 48.6756 11.0209 48.3335C11.2223 48.0364 11.4215 47.7379 11.6209 47.4396C11.8507 47.0959 12.0807 46.7524 12.3128 46.4103C12.5142 46.1133 12.7134 45.8148 12.9129 45.5164C13.1426 45.1728 13.3726 44.8293 13.6048 44.4872C13.8062 44.1901 14.0054 43.8916 14.2048 43.5933C14.6401 42.9422 14.6401 42.9422 14.8505 42.6321C15.0687 42.3105 15.2847 41.9874 15.5007 41.6643C15.7416 41.3039 15.9827 40.9436 16.2263 40.585C16.3678 40.3766 16.5091 40.1682 16.6504 39.9597C16.6887 39.9033 16.7269 39.8469 16.7652 39.7905C16.9672 39.4929 17.1683 39.1949 17.3652 38.894C17.5394 38.6281 17.7165 38.3642 17.8934 38.1001C17.9524 38.0121 18.0114 37.9241 18.0703 37.836C18.2464 37.573 18.4229 37.3102 18.6006 37.0483C18.8174 36.7287 19.0319 36.4077 19.2465 36.0868C19.4762 35.7431 19.7062 35.3997 19.9384 35.0576C20.1398 34.7605 20.3389 34.462 20.5384 34.1636C20.7681 33.82 20.9981 33.4765 21.2303 33.1344C21.4317 32.8373 21.6309 32.5388 21.8303 32.2405C22.2656 31.5894 22.2656 31.5894 22.476 31.2793C22.6943 30.9577 22.9102 30.6346 23.1262 30.3115C23.3671 29.9512 23.6082 29.5909 23.8518 29.2322C23.9933 29.0239 24.1346 28.8154 24.2759 28.6069C24.3142 28.5505 24.3525 28.4941 24.3908 28.4377C24.5928 28.1401 24.7938 27.8421 24.9907 27.5412C25.1649 27.2753 25.342 27.0114 25.519 26.7474C25.5779 26.6593 25.6369 26.5713 25.6958 26.4832C25.872 26.2202 26.0484 25.9574 26.2261 25.6955C26.4429 25.376 26.6574 25.055 26.872 24.734C27.1017 24.3904 27.3317 24.0469 27.5639 23.7048C27.7653 23.4077 27.9645 23.1092 28.1639 22.8109C28.3937 22.4672 28.6237 22.1237 28.8558 21.7816C29.0572 21.4846 29.2564 21.1861 29.4558 20.8877C29.5336 20.7714 29.6114 20.6551 29.6892 20.5388C29.7083 20.5103 29.7273 20.4818 29.7469 20.4525C29.8645 20.2769 29.9828 20.1019 30.1016 19.9271C30.2417 19.7208 30.3795 19.5131 30.5166 19.3048C30.5752 19.2161 30.6339 19.1274 30.6925 19.0388C30.7322 18.9786 30.7718 18.9183 30.8113 18.858C31.4682 17.8542 31.4682 17.8542 32.1138 17.7047C32.369 17.66 32.6359 17.6762 32.894 17.6775ZM45.3085 23.3373C45.2532 23.4067 45.2245 23.4723 45.1953 23.5553C45.1745 23.5553 45.1537 23.5553 45.1323 23.5553C45.0903 23.61 45.0513 23.6669 45.0135 23.7245C45.0014 23.7428 44.9893 23.7611 44.9768 23.7799C44.9501 23.8204 44.9235 23.8609 44.897 23.9014C44.8539 23.9674 44.8105 24.0332 44.767 24.099C44.7197 24.1706 44.6724 24.2422 44.6252 24.3139C44.4222 24.6217 44.2169 24.9279 44.0117 25.2342C43.972 25.2935 43.9322 25.3529 43.8925 25.4122C43.6644 25.7528 43.4354 26.0927 43.2051 26.4318C42.9596 26.7934 42.7165 27.1566 42.4736 27.5199C42.1922 27.9407 41.9099 28.3609 41.6255 28.7797C41.3208 29.2286 41.019 29.6796 40.7175 30.1306C40.6988 30.1586 40.6801 30.1865 40.6609 30.2153C40.6247 30.2695 40.5885 30.3237 40.5524 30.3779C40.4773 30.4905 40.4019 30.6027 40.3237 30.7133C40.3008 30.746 40.2778 30.7787 40.2542 30.8123C40.2349 30.8391 40.2157 30.866 40.1958 30.8936C40.1244 31.0209 40.1237 31.139 40.1536 31.2789C40.2056 31.4244 40.2701 31.5108 40.4057 31.5891C40.6147 31.6324 40.8301 31.6215 41.0421 31.614C41.0761 31.6129 41.1102 31.6118 41.1452 31.6107C41.2572 31.607 41.3691 31.603 41.481 31.5988C41.5392 31.5967 41.5392 31.5967 41.5985 31.5946C44.6116 31.4839 47.6699 31.1605 52.7578 29.5109C52.7828 29.5 52.8079 29.4892 52.8337 29.478C53.7108 29.0972 54.5215 28.5794 55.2156 27.9289C55.2402 27.9067 55.2648 27.8845 55.2901 27.8617C55.966 27.2317 56.3601 26.3621 56.3933 25.4494C56.3768 24.9935 56.1781 24.6389 55.8458 24.3308C54.156 22.9866 51.2913 23.0389 49.2286 22.9349C49.1955 22.9333 49.1955 22.9333 49.1617 22.9315C48.9005 22.9183 48.6393 22.9098 48.3779 22.9039C48.3489 22.9033 48.32 22.9026 48.2901 22.902C48.0404 22.8965 47.7906 22.8914 47.5409 22.8865C47.5055 22.8858 47.47 22.8851 47.4336 22.8844C47.0949 22.8778 46.7562 22.8718 46.4174 22.8699C46.395 22.8696 46.3727 22.8694 46.3496 22.8691C45.9256 22.8683 45.6027 23.0472 45.3085 23.3373Z" fill="white"/>
</svg>
