<svg version="1.1" xmlns="http://www.w3.org/2000/svg" viewBox="0 0 70.79916492313441 73.64812140557854" width="70.79916492313441" height="73.64812140557854">
  <!-- svg-source:excalidraw -->
  
  <defs>
    <style class="style-fonts">
      
    </style>
    
  </defs>
  <g stroke-linecap="round" transform="translate(9.999999999999545 23.673218692325577) rotate(0 19.11843173242528 19.98745135662648)"><path d="M15.66 0.25 C19.46 -0.51, 24.96 0.88, 28.61 3.15 C32.27 5.42, 36.19 9.92, 37.58 13.88 C38.98 17.83, 38.51 22.99, 36.97 26.9 C35.42 30.81, 31.86 35.22, 28.34 37.32 C24.81 39.43, 19.77 40.24, 15.8 39.51 C11.83 38.79, 7.11 36.31, 4.49 32.97 C1.88 29.63, 0.06 23.78, 0.12 19.47 C0.18 15.15, 2.15 10.33, 4.87 7.08 C7.6 3.83, 14.45 1.1, 16.47 -0.05 C18.48 -1.19, 16.8 -0.24, 16.96 0.2 M21.08 -0.03 C25 0.08, 29.07 3.23, 31.85 6.28 C34.63 9.34, 37.27 14.12, 37.77 18.29 C38.27 22.47, 36.98 27.8, 34.86 31.33 C32.75 34.86, 28.88 38.44, 25.09 39.48 C21.3 40.51, 16.06 39.23, 12.14 37.55 C8.21 35.88, 3.52 33.21, 1.54 29.43 C-0.44 25.66, -0.83 19.28, 0.24 14.91 C1.32 10.53, 4.54 5.68, 7.99 3.19 C11.44 0.71, 18.83 0.45, 20.95 0.01 C23.08 -0.43, 20.87 0.22, 20.76 0.54" stroke="#ffd43b" stroke-width="4" fill="none"></path></g><g stroke-linecap="round"><g transform="translate(41.40246569164265 29.86800658390871) rotate(0 9.004041528354719 -8.575277646051973)"><path d="M-1.09 0.99 C1.93 -1.87, 13.74 -14.76, 17 -17.98 M0.53 0.47 C4.03 -2.2, 16.29 -13.87, 19.19 -16.88" stroke="#ffd43b" stroke-width="4" fill="none"></path></g></g><mask></mask><g stroke-linecap="round"><g transform="translate(46.547632279273785 12.717451291804764) rotate(0 7.074604057992929 -1.071909705756525)"><path d="M0.32 0.34 C2.76 -0.04, 12.04 -1.42, 14.25 -1.84 M-0.18 0.04 C2.23 -0.27, 11.4 -2.37, 13.87 -2.64" stroke="#ffd43b" stroke-width="4" fill="none"></path></g></g><mask></mask><g stroke-linecap="round"><g transform="translate(58.55302098374659 25.15160387858009) rotate(0 0.21438194115125953 -7.5033679402955045)"><path d="M-0.02 -0.14 C0.07 -2.72, 0.05 -12.75, 0.08 -15.15 M-0.7 -0.69 C-0.38 -3.22, 1.07 -12.08, 1.14 -14.53" stroke="#ffd43b" stroke-width="4" fill="none"></path></g></g><mask></mask></svg>