<svg width="304" height="110" viewBox="0 0 304 110" fill="none" xmlns="http://www.w3.org/2000/svg">
<path d="M256.5 22.5L101 51.5L48.5 85L285.734 97.2213L256.5 22.5Z" fill="#020004" stroke="black"/>
<path d="M135.036 70.2938L133.001 73.9868C132.958 73.9361 132.894 73.8799 132.81 73.8183C132.739 73.7559 132.586 73.6519 132.35 73.5062C132.127 73.3597 131.892 73.2407 131.646 73.1491C131.414 73.0566 131.123 73.0012 130.774 72.9827C130.425 72.951 130.087 72.992 129.76 73.1058C129.432 73.2062 129.078 73.4219 128.698 73.7527C128.317 74.0703 127.963 74.4997 127.636 75.041C127.612 75.0958 127.591 75.1773 127.571 75.2855C127.551 75.3936 127.517 75.6027 127.469 75.9129C127.434 76.209 127.412 76.4976 127.403 76.7787C127.407 77.059 127.44 77.3776 127.502 77.7344C127.564 78.0779 127.662 78.379 127.799 78.6378C127.947 78.8824 128.168 79.1025 128.461 79.2981C128.753 79.4803 129.113 79.5849 129.542 79.6117C130.12 79.6561 130.671 79.6085 131.197 79.469C131.735 79.3154 132.171 79.1281 132.504 78.907C132.851 78.6718 133.156 78.4324 133.422 78.1888C133.687 77.9453 133.881 77.7395 134.005 77.5716L134.168 77.3009L137.451 79.1813C137.391 79.2919 137.307 79.4441 137.199 79.6378C137.103 79.8174 136.883 80.1517 136.539 80.6405C136.208 81.1153 135.854 81.5381 135.476 81.9088C135.111 82.2788 134.646 82.6283 134.078 82.9574C133.511 83.2864 132.941 83.4687 132.369 83.5042C132.262 83.5108 132.096 83.5211 131.87 83.5352C131.564 83.5675 131.245 83.5873 130.912 83.5946C130.591 83.6011 130.264 83.608 129.931 83.6153C129.611 83.6218 129.282 83.6021 128.945 83.5562C128.622 83.5095 128.298 83.4561 127.974 83.3961C127.663 83.3352 127.349 83.2278 127.032 83.0738C126.729 82.9322 126.432 82.7703 126.14 82.588C125.861 82.3916 125.592 82.1478 125.333 81.8566C125.087 81.5512 124.859 81.218 124.65 80.8569C124.44 80.4826 124.252 80.0467 124.088 79.5492C123.923 79.0385 123.788 78.4791 123.683 77.8711C123.522 76.986 123.47 76.161 123.53 75.3958C123.588 74.6174 123.728 73.9608 123.949 73.4261C124.169 72.8914 124.427 72.4079 124.72 71.9756C125.027 71.5291 125.345 71.1753 125.677 70.9143C126.008 70.6533 126.308 70.4343 126.578 70.2573C126.86 70.0794 127.093 69.9515 127.275 69.8734L127.55 69.7762C127.668 69.7422 127.819 69.6994 128.003 69.6479C128.2 69.5956 128.589 69.5247 129.172 69.4351C129.766 69.3315 130.351 69.2818 130.926 69.2863C131.5 69.2774 132.166 69.3563 132.924 69.523C133.695 69.6756 134.399 69.9325 135.036 70.2938ZM143.416 68.0908L148.243 82.9204L145.049 83.1185L144.34 81.3791L140.747 81.6019L140.258 83.4157L137.264 83.6014L140.122 68.2951L143.416 68.0908ZM141.84 77.9072L143.178 77.8242L142.491 74.5004L142.251 74.5152L141.84 77.9072ZM150.92 68.8879L155.407 68.87L155.996 79.6543L161.177 79.1926L161.598 83.3947L151.481 83.7616L150.92 68.8879ZM170.967 68.0653L168.932 71.7584C168.889 71.7076 168.825 71.6514 168.741 71.5898C168.67 71.5274 168.517 71.4234 168.281 71.2777C168.058 71.1312 167.823 71.0122 167.577 70.9206C167.344 70.8282 167.054 70.7727 166.705 70.7543C166.356 70.7225 166.018 70.7635 165.691 70.8773C165.363 70.9778 165.009 71.1934 164.629 71.5243C164.248 71.8418 163.894 72.2712 163.567 72.8125C163.543 72.8674 163.522 72.9489 163.502 73.057C163.482 73.1651 163.448 73.3743 163.4 73.6845C163.365 73.9805 163.343 74.2691 163.334 74.5502C163.338 74.8305 163.371 75.1491 163.433 75.5059C163.495 75.8494 163.593 76.1506 163.73 76.4093C163.878 76.6539 164.099 76.874 164.392 77.0696C164.684 77.2519 165.044 77.3564 165.473 77.3832C166.051 77.4276 166.602 77.38 167.128 77.2406C167.666 77.0869 168.102 76.8996 168.435 76.6785C168.781 76.4433 169.087 76.2039 169.353 75.9604C169.618 75.7168 169.812 75.511 169.936 75.3431L170.099 75.0725L173.382 76.9529C173.322 77.0634 173.238 77.2156 173.13 77.4093C173.034 77.5889 172.814 77.9232 172.47 78.4121C172.139 78.8868 171.785 79.3096 171.407 79.6803C171.042 80.0503 170.577 80.3998 170.009 80.7289C169.442 81.058 168.872 81.2402 168.3 81.2757C168.193 81.2823 168.027 81.2927 167.801 81.3067C167.495 81.339 167.176 81.3588 166.842 81.3661C166.522 81.3726 166.195 81.3795 165.862 81.3869C165.542 81.3934 165.213 81.3737 164.876 81.3278C164.553 81.281 164.229 81.2276 163.905 81.1676C163.594 81.1067 163.28 80.9993 162.963 80.8453C162.66 80.7037 162.363 80.5418 162.071 80.3596C161.792 80.1631 161.523 79.9193 161.264 79.6281C161.018 79.3227 160.79 78.9895 160.581 78.6285C160.371 78.2541 160.183 77.8182 160.019 77.3207C159.854 76.81 159.719 76.2506 159.614 75.6426C159.453 74.7576 159.401 73.9325 159.461 73.1673C159.519 72.3889 159.659 71.7323 159.88 71.1976C160.1 70.6629 160.358 70.1794 160.651 69.7471C160.958 69.3006 161.276 68.9469 161.608 68.6859C161.939 68.4249 162.239 68.2058 162.509 68.0288C162.791 67.851 163.024 67.723 163.206 67.6449L163.481 67.5477C163.599 67.5137 163.75 67.4709 163.934 67.4194C164.131 67.3671 164.52 67.2962 165.103 67.2067C165.697 67.103 166.282 67.0534 166.857 67.0578C167.431 67.0489 168.097 67.1278 168.855 67.2945C169.626 67.4471 170.33 67.704 170.967 68.0653ZM175.442 67.8479L176.576 76.4341C176.631 76.885 176.714 77.2605 176.826 77.5608C176.951 77.847 177.157 78.0546 177.446 78.1836C177.514 78.2061 177.615 78.2199 177.749 78.225C177.882 78.2167 178.035 78.2072 178.208 78.1965C178.394 78.1716 178.52 78.1571 178.586 78.153C179.293 78.1359 179.696 77.7368 179.794 76.9559C179.795 76.7555 179.796 76.6552 179.796 76.6552L178.746 67.8033L181.83 67.7723L182.685 76.7165C182.686 76.7298 182.689 76.7764 182.694 76.8562C182.741 77.6148 182.57 78.3133 182.182 78.9519C181.358 80.3122 180.13 81.1832 178.497 81.5651C177.048 81.8954 175.75 81.5284 174.602 80.4641C173.736 79.6494 173.213 78.6466 173.032 77.4555L171.785 68.0145L175.442 67.8479ZM186.85 66.6594L191.338 66.6416L191.927 77.4258L197.108 76.9642L197.529 81.1662L187.412 81.5331L186.85 66.6594ZM203.301 64.3767L208.128 79.2063L204.934 79.4044L204.225 77.665L200.632 77.8878L200.143 79.7015L197.149 79.8872L200.007 64.581L203.301 64.3767ZM201.725 74.193L203.063 74.1101L202.376 70.7862L202.136 70.8011L201.725 74.193ZM211.073 64.9767L217.916 63.851L218.291 66.9938L216.007 67.3158L217.466 78.2464L214.971 78.7218L213.383 67.6589L211.3 67.9885L211.073 64.9767ZM222.034 64.337C223.039 63.7403 224.121 63.406 225.278 63.3342C226.662 63.2484 227.956 63.5355 229.159 64.1957C230.361 64.8425 231.306 65.7457 231.992 66.9055C232.575 67.898 232.902 68.9798 232.975 70.1509C233.057 71.4683 232.806 72.7062 232.224 73.8645C231.653 75.0087 230.829 75.9348 229.751 76.6429C228.673 77.3643 227.476 77.7659 226.158 77.8476C224.854 77.9285 223.623 77.6775 222.465 77.0948C221.307 76.5253 220.368 75.7086 219.648 74.6445C218.94 73.5662 218.545 72.3684 218.463 71.0509C218.377 69.6669 218.658 68.3737 219.304 67.1714C219.965 65.9682 220.874 65.0234 222.034 64.337ZM227.75 73.14C228.237 72.3751 228.474 71.4587 228.461 70.3907C228.461 69.3087 228.204 68.3962 227.69 67.6532C227.189 66.8961 226.585 66.5195 225.877 66.5233C225.182 66.5263 224.592 66.9103 224.105 67.6752C223.618 68.4401 223.375 69.3636 223.375 70.4457C223.388 71.5136 223.645 72.4261 224.146 73.1832C224.66 73.9395 225.265 74.3161 225.959 74.3131C226.666 74.296 227.263 73.905 227.75 73.14ZM239.849 63.3724C239.904 63.409 239.981 63.4643 240.079 63.5384C240.19 63.5983 240.38 63.7602 240.651 64.024C240.921 64.2878 241.166 64.5798 241.386 64.9001C241.62 65.2196 241.847 65.6597 242.069 66.2204C242.29 66.7677 242.44 67.3596 242.52 67.9959C242.6 68.6322 242.582 69.2144 242.468 69.7424C242.354 70.2705 242.179 70.6888 241.945 70.9972C241.722 71.2916 241.491 71.5464 241.251 71.7617C241.023 71.9628 240.824 72.1021 240.655 72.1793L240.382 72.2965L243.674 78.8453L239.262 79.1189L236.946 73.1107L235.976 73.3111L236.23 79.0064L232.981 79.288L232.111 63.9725L239.849 63.3724ZM238.596 69.0208C238.625 68.6315 238.565 68.3013 238.414 68.0301C238.277 67.7581 238.085 67.5629 237.837 67.4447C237.602 67.3257 237.343 67.2349 237.059 67.1724C236.774 67.1099 236.513 67.0927 236.274 67.1208C236.035 67.149 235.843 67.1743 235.697 67.1967L235.812 70.015C235.879 70.0242 235.974 70.045 236.097 70.0775C236.218 70.0967 236.433 70.1101 236.74 70.1177C237.048 70.1254 237.321 70.1084 237.559 70.067C237.81 70.0247 238.037 69.9171 238.24 69.7442C238.456 69.5571 238.574 69.316 238.596 69.0208Z" fill="#F5F5F5"/>
<path d="M135.263 48.8536L143.339 47.8332L143.857 51.6181L139.696 52.1843L140.003 54.1411L143.932 53.6447L144.36 56.554L140.216 57.2591L141.295 64.6824L137.168 65.2038L135.263 48.8536ZM148.707 49.957L150.386 58.4537C150.469 58.9001 150.576 59.2696 150.707 59.5621C150.85 59.8398 151.069 60.0338 151.365 60.1442C151.435 60.1623 151.537 60.1696 151.671 60.1661C151.803 60.1494 151.955 60.1302 152.127 60.1085C152.31 60.0718 152.435 60.0493 152.501 60.041C153.206 59.9789 153.582 59.555 153.631 58.7694C153.619 58.5693 153.613 58.4692 153.613 58.4692L152.001 49.7021L155.077 49.4748L156.501 58.3463C156.502 58.3596 156.508 58.4059 156.518 58.4852C156.613 59.2392 156.488 59.9472 156.141 60.6092C155.406 62.0192 154.235 62.9667 152.63 63.4518C151.205 63.8737 149.886 63.5902 148.672 62.6012C147.757 61.8433 147.171 60.8758 146.914 59.6986L145.069 50.3563L148.707 49.957ZM166.855 48.7124L165.124 50.9672C165.064 50.921 164.981 50.8508 164.875 50.7567C164.769 50.6626 164.577 50.5255 164.299 50.3457C164.034 50.1641 163.781 50.0214 163.539 49.9175C163.311 49.812 163.071 49.7751 162.82 49.8068C162.569 49.8386 162.377 49.9703 162.245 50.202C161.927 50.7664 161.924 51.2237 162.237 51.5739C162.407 51.7539 162.623 51.8611 162.882 51.8955C163.155 51.9282 163.443 51.9725 163.746 52.0283C164.062 52.0825 164.479 52.1977 164.999 52.3739C165.532 52.5485 165.995 52.7588 166.389 53.0047C166.783 53.2506 167.136 53.5957 167.447 54.0402C167.757 54.4714 167.925 54.9541 167.953 55.4883C168.046 57.1833 167.848 58.5454 167.36 59.5747C166.87 60.5908 166.074 61.2021 164.971 61.4087C163.906 61.597 162.9 61.4486 161.952 60.9637C161.005 60.4919 160.237 59.8364 159.647 58.9971L161.301 56.4497C161.347 56.4976 161.41 56.5702 161.489 56.6677C161.581 56.7503 161.74 56.8981 161.969 57.1111C162.196 57.3109 162.407 57.4926 162.602 57.656C162.811 57.8178 163.023 57.959 163.24 58.0794C163.469 58.1849 163.649 58.2293 163.781 58.2126C164.137 58.1543 164.51 57.9727 164.902 57.6679C165.196 57.4426 165.334 57.1497 165.315 56.7892C165.271 56.1227 164.637 55.7325 163.413 55.6183C161.986 55.4896 160.918 55.0734 160.211 54.3698C159.516 53.6513 159.251 52.5627 159.416 51.1038C159.463 50.6274 159.512 50.218 159.563 49.8756C159.627 49.5316 159.71 49.1784 159.812 48.8161C159.926 48.4388 160.048 48.1344 160.18 47.9027C160.324 47.6561 160.503 47.4251 160.718 47.2098C160.931 46.9813 161.179 46.8156 161.461 46.7127C161.742 46.5966 162.076 46.5209 162.461 46.4856C162.858 46.4355 163.294 46.4341 163.771 46.4814C163.797 46.4781 163.824 46.4814 163.852 46.4912C163.892 46.4862 163.99 46.5142 164.145 46.5752C164.314 46.6345 164.501 46.7318 164.706 46.8672C164.912 47.0025 165.203 47.2345 165.58 47.5631C165.97 47.8768 166.394 48.2599 166.855 48.7124ZM172.836 45.6384L175.952 45.2448L178.11 60.5751L174.774 60.9764L172.836 45.6384ZM183.076 44.9897C184.041 44.3302 185.099 43.9278 186.25 43.7824C187.625 43.6085 188.935 43.8127 190.177 44.3948C191.418 44.9638 192.418 45.805 193.177 46.9187C193.822 47.8721 194.218 48.9308 194.365 50.0949C194.53 51.4045 194.359 52.6558 193.851 53.8489C193.355 55.027 192.592 56.0038 191.561 56.7791C190.531 57.5677 189.362 58.0447 188.052 58.2102C186.756 58.374 185.511 58.202 184.318 57.6942C183.127 57.1996 182.138 56.4443 181.351 55.4283C180.575 54.3974 180.105 53.2271 179.94 51.9175C179.766 50.5418 179.963 49.2334 180.532 47.9923C181.114 46.7495 181.962 45.7486 183.076 44.9897ZM189.341 53.4108C189.778 52.6164 189.956 51.6867 189.876 50.6218C189.806 49.542 189.492 48.6477 188.932 47.9389C188.383 47.2153 187.756 46.8779 187.05 46.9268C186.357 46.9741 185.792 47.3949 185.355 48.1893C184.918 48.9837 184.734 49.9208 184.803 51.0006C184.884 52.0656 185.198 52.9599 185.747 53.6835C186.308 54.4055 186.936 54.7428 187.628 54.6956C188.333 54.6335 188.904 54.2052 189.341 53.4108ZM197.286 56.6202L194.416 57.0433L193.716 43.6856L197.323 43.1897L201.296 51.9809L200.16 42.5087L203.101 42.1773L204.013 55.9316L199.833 56.3588L196.359 47.686L197.286 56.6202Z" fill="#F5F5F5"/>
<path d="M64.1286 15.0083C64.1604 15.0083 64.1921 15.0082 64.2248 15.0082C64.332 15.008 64.4392 15.0081 64.5464 15.0082C64.624 15.0082 64.7016 15.0081 64.7793 15.008C64.949 15.0079 65.1188 15.0078 65.2885 15.0079C65.5426 15.008 65.7967 15.0078 66.0508 15.0077C66.4839 15.0075 66.9169 15.0074 67.35 15.0073C67.789 15.0073 68.228 15.0072 68.667 15.0071C68.6947 15.0071 68.7224 15.0071 68.7509 15.007C68.8637 15.007 68.9765 15.007 69.0893 15.0069C70.4257 15.0064 71.762 15.0062 73.0983 15.0061C73.7635 15.006 74.4287 15.0059 75.0938 15.0058C77.2267 15.0054 79.3595 15.005 81.4923 15.0049C81.5943 15.0049 81.6962 15.0049 81.7982 15.0049C82.0027 15.0049 82.2072 15.0049 82.4117 15.0049C82.6511 15.0049 82.8905 15.0049 83.1299 15.0048C83.1984 15.0048 83.2669 15.0048 83.3354 15.0048C85.5369 15.0047 87.7384 15.0043 89.9399 15.0035C91.5216 15.003 93.1033 15.0025 94.685 15.0024C94.7175 15.0024 94.75 15.0024 94.7835 15.0024C95.4971 15.0023 96.2106 15.0023 96.9242 15.0023C97.1795 15.0023 97.4348 15.0023 97.6902 15.0023C97.7537 15.0023 97.8172 15.0023 97.8807 15.0023C98.8939 15.0022 99.907 15.0019 100.92 15.0015C101.94 15.001 102.96 15.0009 103.98 15.0011C104.121 15.0011 104.262 15.0012 104.403 15.0012C104.43 15.0012 104.458 15.0012 104.486 15.0012C104.924 15.0013 105.362 15.0011 105.8 15.0007C106.23 15.0004 106.66 15.0004 107.09 15.0007C107.343 15.0009 107.595 15.0008 107.848 15.0004C108.035 15.0001 108.222 15.0003 108.409 15.0006C108.484 15.0007 108.56 15.0006 108.635 15.0004C108.737 15.0001 108.839 15.0003 108.941 15.0007C108.971 15.0005 109 15.0002 109.031 15C109.22 15.0016 109.358 15.0282 109.504 15.1577C109.557 15.2642 109.558 15.3627 109.54 15.4776C109.495 15.5752 109.436 15.6596 109.374 15.7468C109.356 15.772 109.339 15.7971 109.321 15.8231C109.266 15.9034 109.21 15.9832 109.154 16.063C109.117 16.1154 109.081 16.1679 109.045 16.2203C108.972 16.3252 108.9 16.4298 108.827 16.5344C108.531 16.9581 108.246 17.3885 107.959 17.8177C107.678 18.2378 107.397 18.6577 107.113 19.0757C106.855 19.4552 106.6 19.8363 106.345 20.2176C106.047 20.6642 105.748 21.1105 105.445 21.5547C105.31 21.7536 105.175 21.9529 105.043 22.1536C104.975 22.2558 104.907 22.3579 104.839 22.4599C104.806 22.5087 104.774 22.5575 104.742 22.6065C104.301 23.2807 104.301 23.2807 103.921 23.4183C103.89 23.4298 103.86 23.4413 103.829 23.4532C103.677 23.5004 103.541 23.5152 103.382 23.5153C103.341 23.5154 103.3 23.5154 103.257 23.5155C103.211 23.5155 103.166 23.5154 103.12 23.5153C103.071 23.5154 103.022 23.5154 102.974 23.5155C102.839 23.5156 102.704 23.5156 102.57 23.5155C102.423 23.5154 102.277 23.5155 102.131 23.5156C101.874 23.5158 101.618 23.5158 101.361 23.5158C100.98 23.5157 100.598 23.5159 100.217 23.516C99.6147 23.5163 99.0124 23.5165 98.4101 23.5166C97.4543 23.5167 96.4984 23.5172 95.5426 23.5178C95.3393 23.5179 95.136 23.5181 94.9326 23.5182C94.8921 23.5182 94.8516 23.5182 94.8098 23.5182C94.7277 23.5183 94.6456 23.5183 94.5634 23.5184C94.481 23.5184 94.3986 23.5185 94.3161 23.5185C93.3652 23.5191 92.4142 23.5196 91.4633 23.5201C91.3988 23.5201 91.3343 23.5202 91.2699 23.5202C90.2767 23.5207 89.2835 23.5211 88.2903 23.5213C88.2583 23.5213 88.2583 23.5213 88.2256 23.5213C87.8811 23.5214 87.5366 23.5214 87.1921 23.5215C85.7517 23.5217 84.3114 23.5224 82.8711 23.5235C82.6709 23.5237 82.4706 23.5238 82.2704 23.524C82.231 23.524 82.1916 23.5241 82.151 23.5241C81.5158 23.5246 80.8806 23.5246 80.2454 23.5244C79.6075 23.5243 78.9696 23.5246 78.3316 23.5254C77.9523 23.5258 77.5729 23.5259 77.1936 23.5255C76.9405 23.5253 76.6874 23.5255 76.4343 23.5261C76.2899 23.5264 76.1455 23.5265 76.0011 23.5261C75.8699 23.5257 75.7386 23.5259 75.6074 23.5265C75.5601 23.5266 75.5128 23.5266 75.4655 23.5263C75.4014 23.5259 75.3374 23.5263 75.2733 23.5268C75.2378 23.5268 75.2023 23.5268 75.1657 23.5268C75.0174 23.5502 74.9175 23.6208 74.8211 23.7325C74.8056 23.7559 74.7902 23.7794 74.7742 23.8036C74.7565 23.8301 74.7388 23.8565 74.7206 23.8838C74.7024 23.9119 74.6842 23.94 74.6654 23.9689C74.6368 24.0123 74.6368 24.0123 74.6076 24.0566C74.5689 24.1154 74.5303 24.1744 74.492 24.2335C74.4419 24.3103 74.3908 24.3864 74.3393 24.4624C74.3108 24.5053 74.2823 24.5482 74.2538 24.5912C74.2342 24.6198 74.2342 24.6198 74.2142 24.6489C74.1226 24.7902 74.0976 24.898 74.0903 25.0623C74.139 25.1959 74.1908 25.2656 74.3109 25.3415C74.3892 25.3683 74.3892 25.3683 74.4768 25.386C74.5284 25.3976 74.5284 25.3976 74.581 25.4094C74.6384 25.4219 74.6384 25.4219 74.6969 25.4345C74.7384 25.4438 74.7799 25.453 74.8214 25.4624C74.94 25.4889 75.0586 25.5151 75.1772 25.5412C77.1799 25.9823 79.167 26.4772 81.1172 27.1095C81.1442 27.1183 81.1712 27.127 81.199 27.136C83.3945 27.8485 85.5928 28.6977 87.5904 29.8545C87.673 29.9022 87.7561 29.949 87.8392 29.9958C88.9731 30.6386 90.0576 31.401 91.0199 32.2746C91.0866 32.3343 91.154 32.3923 91.2224 32.4501C91.3802 32.5857 91.5274 32.731 91.6751 32.877C91.7022 32.9035 91.7293 32.9301 91.7571 32.9574C91.9143 33.1123 92.0646 33.2707 92.2088 33.4373C92.2355 33.4672 92.2621 33.4971 92.2896 33.5279C94.1972 35.7067 95.1746 38.4789 94.9975 41.4778C94.8567 43.1665 94.3282 44.7386 93.5638 46.2479C93.5505 46.2743 93.5371 46.3006 93.5234 46.3277C92.9869 47.3805 92.291 48.3595 91.5289 49.2653C91.4655 49.3409 91.403 49.4171 91.3403 49.4933C91.0521 49.8389 90.753 50.1723 90.4409 50.4972C90.3778 50.5631 90.315 50.6291 90.2522 50.6952C89.6647 51.3133 89.6647 51.3133 89.3728 51.559C89.3016 51.6214 89.2349 51.687 89.1681 51.7537C89.0631 51.8583 88.9553 51.9567 88.842 52.0524C88.7622 52.1207 88.6846 52.1911 88.6068 52.2617C88.4662 52.3879 88.3216 52.5075 88.1735 52.6252C88.0695 52.709 87.9679 52.7954 87.8663 52.882C87.6686 53.0499 87.4656 53.2098 87.2591 53.3671C87.1945 53.4164 87.1301 53.4661 87.0659 53.5158C86.7502 53.7596 86.4302 53.9967 86.1059 54.2292C86.0357 54.2797 85.9656 54.3304 85.8955 54.3812C85.5374 54.6397 85.1692 54.8822 84.7987 55.1231C84.7176 55.1759 84.6368 55.2291 84.5561 55.2824C84.2225 55.5032 83.8847 55.7166 83.5435 55.9257C83.5127 55.9446 83.482 55.9635 83.4504 55.9829C82.9414 56.2953 82.4266 56.596 81.9049 56.8873C81.8563 56.9145 81.8563 56.9145 81.8066 56.9423C80.2227 57.8265 78.5961 58.6417 76.932 59.3697C76.8606 59.401 76.7891 59.4324 76.7178 59.4639C74.8886 60.2698 73.0208 60.9848 71.1284 61.6331C71.0988 61.6433 71.0692 61.6534 71.0387 61.6639C68.7672 62.4422 66.4639 63.1274 64.133 63.7114C64.0943 63.7211 64.0556 63.7308 64.0158 63.7408C62.6831 64.0749 61.345 64.3791 60.0002 64.6622C59.8159 64.7011 59.632 64.7408 59.4485 64.7832C59.2551 64.8275 59.0609 64.8645 58.8655 64.8993C58.8295 64.9058 58.7934 64.9123 58.7563 64.919C58.6369 64.9404 58.5175 64.9618 58.3981 64.9831C58.3113 64.9987 58.2245 65.0143 58.1376 65.03C57.8873 65.0749 57.637 65.1197 57.3867 65.1645C57.2922 65.1814 57.1978 65.1983 57.1034 65.2152C57.0115 65.2317 56.9196 65.2481 56.8277 65.2646C56.7843 65.2723 56.741 65.2801 56.6976 65.2879C56.6375 65.2986 56.5774 65.3094 56.5173 65.3201C56.4664 65.3292 56.4664 65.3292 56.4144 65.3385C56.3195 65.3552 56.2245 65.3709 56.1294 65.3864C56.0889 65.393 56.0889 65.393 56.0475 65.3998C53.5455 65.8092 51.0346 66.1453 43.772 66.732C43.5488 66.7444 43.3257 66.7574 43.1027 66.7715C42.5396 66.8068 41.9772 66.8243 41.4131 66.8337C41.3701 66.8344 41.3701 66.8344 41.3263 66.8352C41.2739 66.8361 41.2216 66.8369 41.1693 66.8376C41.0379 66.8398 40.9068 66.8442 40.7755 66.8515C40.3563 66.8748 39.9385 66.8798 39.5186 66.8794C39.4458 66.8794 39.373 66.8794 39.3002 66.8795C39.1478 66.8795 38.9954 66.8794 38.843 66.8793C38.6532 66.8791 38.4634 66.8792 38.2736 66.8794C36.8626 66.8805 35.452 66.8628 34.042 66.8083C33.9672 66.8054 33.8925 66.8025 33.8178 66.7997C32.9776 66.7677 32.1384 66.723 31.2992 66.6717C31.2721 66.67 31.2449 66.6684 31.217 66.6667C30.897 66.6472 30.5772 66.6268 30.2574 66.6046C30.178 66.5992 30.0986 66.5939 30.0192 66.5888C29.9213 66.5824 29.8235 66.5754 29.7256 66.5681C29.6986 66.5665 29.6716 66.5648 29.6437 66.5632C29.4809 66.5499 29.3815 66.5143 29.251 66.41C29.1689 66.3035 29.1773 66.1988 29.188 66.0688C29.2237 65.986 29.2726 65.9142 29.3239 65.84C29.338 65.8187 29.3522 65.7973 29.3668 65.7753C29.3967 65.7302 29.4269 65.6852 29.4573 65.6403C29.5163 65.5529 29.5739 65.4646 29.6316 65.3763C29.6896 65.2875 29.7481 65.199 29.8066 65.1105C30.0218 64.7845 30.2357 64.4577 30.4484 64.1301C30.6602 63.8041 30.8732 63.4789 31.0872 63.1542C31.2967 62.8364 31.5045 62.5175 31.7119 62.1983C31.8444 61.9943 31.9775 61.7907 32.1114 61.5876C32.2406 61.3913 32.3686 61.1943 32.4966 60.9972C32.6511 60.7592 32.8062 60.5216 32.9624 60.2846C33.0902 60.0904 33.2168 59.8953 33.3434 59.7003C33.5123 59.4401 33.6823 59.1807 33.8536 58.9221C34.0122 58.6823 34.1687 58.4412 34.3251 58.2C34.4803 57.961 34.6369 57.7228 34.7946 57.4853C34.8563 57.3923 34.9174 57.2997 34.9743 57.2038C35.1569 56.9141 35.4392 56.763 35.7678 56.6839C35.8752 56.6625 35.9826 56.6576 36.0918 56.6542C36.1162 56.6532 36.1406 56.6522 36.1657 56.6512C36.2465 56.6481 36.3273 56.6452 36.4082 56.6424C36.4661 56.6402 36.5241 56.6379 36.5821 56.6356C36.7063 56.6308 36.8306 56.626 36.9548 56.6213C37.2884 56.6088 37.6218 56.595 37.9553 56.5811C37.9893 56.5797 38.0234 56.5783 38.0585 56.5768C40.7752 56.4635 43.4864 56.2616 46.4872 55.9567C46.5099 55.9544 46.5326 55.9521 46.556 55.9497C49.3198 55.6663 52.0738 55.278 56.5705 54.4368C56.6039 54.4301 56.6372 54.4234 56.6715 54.4165C58.3413 54.0795 60.0054 53.6909 61.6437 53.2271C61.6726 53.2189 61.7014 53.2108 61.7312 53.2024C63.7327 52.6357 65.7097 51.9879 67.6182 51.164C67.6887 51.1336 67.7592 51.1034 67.8298 51.0734C68.8007 50.6607 69.766 50.2043 70.6757 49.6724C70.7502 49.629 70.8251 49.5863 70.9 49.5438C71.7898 49.0338 72.6376 48.447 73.4286 47.7989C73.4639 47.7703 73.4991 47.7417 73.5343 47.7131C74.0552 47.2877 74.58 46.8256 74.9991 46.3013C75.061 46.2245 75.1254 46.1504 75.1908 46.0765C76.2178 44.9114 76.8502 43.4784 77.1153 41.9674C77.1196 41.9439 77.1238 41.9203 77.1281 41.8961C77.2492 41.1887 77.2384 40.3726 77.0838 39.672C77.0776 39.6434 77.0713 39.6149 77.0648 39.5854C76.9683 39.1599 76.8302 38.7638 76.6427 38.3692C76.6334 38.3493 76.6241 38.3294 76.6145 38.3088C76.1881 37.4012 75.4824 36.5975 74.689 35.9808C74.6352 35.9362 74.5814 35.8916 74.5275 35.847C74.124 35.523 73.6874 35.2484 73.2395 34.9882C73.2038 34.9673 73.1681 34.9464 73.1312 34.9248C72.0865 34.3253 70.9765 33.8603 69.8364 33.4683C69.7972 33.4548 69.7579 33.4413 69.7175 33.4274C66.7032 32.3957 63.5261 31.8584 54.5147 30.9587C54.4772 30.9566 54.4396 30.9545 54.4009 30.9523C54.2263 30.9425 54.0516 30.9331 53.8769 30.9244C53.8457 30.9228 53.8145 30.9211 53.7823 30.9194C53.7253 30.9164 53.6683 30.9136 53.6112 30.911C53.167 30.8872 53.167 30.8872 53.0256 30.7619C52.9705 30.6626 52.9468 30.6044 52.9468 30.4905C53.042 30.2727 53.1776 30.0805 53.312 29.8847C53.3538 29.8237 53.3955 29.7626 53.4371 29.7015C53.4962 29.6148 53.5553 29.5282 53.6145 29.4416C53.7541 29.2372 53.8931 29.0322 54.032 28.8272C54.0529 28.7964 54.0529 28.7964 54.0742 28.7649C54.3785 28.3158 54.6803 27.865 54.9817 27.4139C55.2367 27.0323 55.4934 26.6518 55.7513 26.272C55.7658 26.2506 55.7803 26.2292 55.7953 26.2072C55.822 26.1677 55.8488 26.1283 55.8756 26.0889C56.2626 25.5188 56.647 24.947 57.0298 24.3742C57.2123 24.1011 57.3953 23.8285 57.5797 23.5567C57.7241 23.3439 57.8676 23.1307 58.0103 22.9169C58.0278 22.8907 58.0452 22.8646 58.0632 22.8376C58.0992 22.7837 58.1351 22.7298 58.1711 22.676C58.5297 22.1385 58.8927 21.6041 59.259 21.0716C59.4755 20.7567 59.6899 20.4412 59.8944 20.1185C60.09 19.8126 60.2976 19.5146 60.5034 19.2153C60.8017 18.7816 61.0979 18.3467 61.3897 17.9086C61.4541 17.812 61.5185 17.7153 61.5829 17.6186C61.5985 17.5951 61.6141 17.5717 61.6302 17.5476C61.8224 17.2594 62.0165 16.9726 62.2113 16.6862C62.2394 16.645 62.2674 16.6037 62.2955 16.5625C62.3161 16.5321 62.3161 16.5321 62.3372 16.5011C62.4235 16.3739 62.509 16.2461 62.5939 16.1179C62.6507 16.032 62.7078 15.9464 62.7649 15.8607C62.7916 15.8205 62.8182 15.7803 62.8446 15.7399C63.1958 15.2033 63.1958 15.2033 63.5087 15.0937C63.5339 15.0845 63.559 15.0753 63.5849 15.0658C63.7681 15.0111 63.9386 15.0079 64.1286 15.0083Z" fill="black"/>
<path d="M32.894 32.6775C32.9664 32.6774 33.0389 32.6773 33.1113 32.6771C33.3098 32.6767 33.5083 32.677 33.7067 32.6775C33.8991 32.6779 34.0914 32.6777 34.2838 32.6775C34.6776 32.6771 35.0714 32.6773 35.4652 32.6778C35.8564 32.6784 36.2476 32.6787 36.6388 32.6787C36.6755 32.6787 36.6755 32.6787 36.7128 32.6787C36.812 32.6787 36.9111 32.6787 37.0103 32.6786C37.941 32.6786 38.8718 32.6792 39.8026 32.6802C40.6245 32.681 41.4464 32.6814 42.2683 32.6813C42.3208 32.6813 42.3733 32.6813 42.4258 32.6813C42.4518 32.6813 42.4778 32.6813 42.5045 32.6813C42.6353 32.6813 42.7661 32.6813 42.8969 32.6813C42.9227 32.6813 42.9485 32.6813 42.9752 32.6813C43.6659 32.6813 44.3567 32.6816 45.0474 32.682C45.0721 32.682 45.0968 32.682 45.1223 32.682C45.2216 32.6821 45.3209 32.6821 45.4202 32.6822C45.7613 32.6824 46.1023 32.6825 46.4433 32.6825C50.464 32.6829 50.464 32.6829 52.2851 32.7549C52.3518 32.7575 52.4185 32.76 52.4852 32.7626C52.8185 32.7755 53.1517 32.7901 53.4848 32.8074C53.5609 32.8113 53.637 32.8151 53.7132 32.819C57.0351 32.987 63.447 32.819 71.4871 37.3633C71.5532 37.4237 71.62 37.4812 71.6897 37.5376C71.8102 37.6382 71.9092 37.7541 72.0107 37.8729C72.0343 37.8994 72.058 37.9258 72.0824 37.953C72.9478 38.9368 73.4138 40.2306 73.3341 41.5331C73.2284 42.8516 72.6908 44.0146 71.8531 45.0382C71.8154 45.0849 71.8154 45.0849 71.7769 45.1326C71.5608 45.3936 71.3202 45.6314 71.0791 45.8699C71.0624 45.8865 71.0457 45.9031 71.0285 45.9203C70.8098 46.1372 70.5844 46.3372 70.3406 46.5271C70.2991 46.5608 70.2577 46.5945 70.2164 46.6284C68.7784 47.7988 67.0896 48.6939 65.3935 49.4428C65.3567 49.4591 65.3199 49.4754 65.282 49.4921C64.2684 49.9373 63.2325 50.3283 62.1856 50.6906C62.1169 50.7144 62.0482 50.7383 61.9795 50.7622C59.2936 51.6942 56.5164 52.3667 52.4712 53.179C52.4154 53.1894 52.3596 53.2001 52.3039 53.2112C52.1955 53.2323 52.0867 53.251 51.9779 53.2698C51.9547 53.2738 51.9316 53.2778 51.9077 53.2819C51.809 53.299 51.7104 53.316 51.6117 53.3331C51.5395 53.3455 51.4672 53.3581 51.395 53.3706C51.3618 53.3763 51.3618 53.3763 51.3279 53.3821C51.2439 53.3967 51.16 53.4114 51.0764 53.4281C50.9874 53.4454 50.8983 53.4602 50.8087 53.4746C50.7534 53.4836 50.7534 53.4836 50.697 53.4926C50.6368 53.5023 50.6368 53.5023 50.5753 53.5121C50.5544 53.5154 50.5335 53.5188 50.512 53.5222C47.9588 53.9302 45.3957 54.251 39.4427 54.7237C39.4201 54.7251 39.3975 54.7264 39.3743 54.7277C38.9041 54.7547 38.4339 54.7799 37.9633 54.7986C37.8165 54.8046 37.6704 54.8127 37.524 54.8255C37.2409 54.8489 36.9566 54.8493 36.6727 54.8539C36.5678 54.8556 36.4629 54.8576 36.358 54.8596C36.0705 54.8652 35.783 54.8707 35.4955 54.8745C35.4009 54.8759 35.3064 54.8777 35.2119 54.8796C35.1497 54.8807 35.0875 54.8813 35.0253 54.8818C34.6151 54.8909 34.2824 54.9997 33.9776 55.2743C33.9285 55.3347 33.8816 55.3968 33.8365 55.4601C33.8233 55.4787 33.81 55.4973 33.7963 55.5165C33.6219 55.763 33.4551 56.0147 33.2879 56.266C33.1867 56.418 33.0852 56.5699 32.9838 56.7218C32.9636 56.7521 32.9433 56.7824 32.9225 56.8136C32.7489 57.0735 32.5738 57.3324 32.3981 57.591C32.1452 57.9636 31.8941 58.3372 31.6439 58.7116C31.6262 58.738 31.6086 58.7643 31.5904 58.7915C31.4995 58.9275 31.4087 59.0635 31.3178 59.1995C31.122 59.4925 30.9261 59.7854 30.73 60.0783C30.7105 60.1075 30.6911 60.1366 30.671 60.1666C30.4294 60.5274 30.1871 60.8877 29.9431 61.2468C29.7161 61.5814 29.4915 61.9175 29.2668 62.2535C28.9998 62.6527 28.7322 63.0515 28.4623 63.4488C28.2134 63.8157 27.9673 64.1843 27.7209 64.5528C27.4888 64.8997 27.2563 65.2464 27.0216 65.5916C26.8034 65.9131 26.5878 66.2363 26.3718 66.5593C26.1245 66.9289 25.8772 67.2984 25.6273 67.6662C25.3787 68.0321 25.1327 68.3997 24.8868 68.7674C24.6198 69.1667 24.3522 69.5656 24.0822 69.9629C23.8552 70.2975 23.6306 70.6336 23.4058 70.9697C23.1388 71.3689 22.8713 71.7677 22.6014 72.165C22.3525 72.5319 22.1064 72.9006 21.8599 73.269C21.6279 73.6159 21.3954 73.9626 21.1607 74.3078C20.9425 74.6293 20.7268 74.9525 20.5108 75.2755C20.2636 75.6451 20.0163 76.0146 19.7664 76.3824C19.5178 76.7483 19.2718 77.1159 19.0259 77.4836C18.7281 77.9288 18.4299 78.3735 18.1286 78.8164C18.0511 78.9303 17.9743 79.0446 17.8981 79.1593C17.8636 79.2113 17.829 79.2632 17.7944 79.315C17.7518 79.3789 17.7095 79.4428 17.6673 79.5069C17.497 79.7616 17.3346 79.9529 17.0526 80.0853C16.9969 80.112 16.9969 80.112 16.9401 80.1393C16.7607 80.2132 16.5952 80.2177 16.4026 80.2175C16.3747 80.2175 16.3468 80.2176 16.3181 80.2177C16.2241 80.218 16.1302 80.218 16.0362 80.218C15.9684 80.2181 15.9006 80.2183 15.8327 80.2184C15.6459 80.2188 15.4591 80.219 15.2723 80.2191C15.0709 80.2193 14.8696 80.2196 14.6683 80.22C14.2049 80.2207 13.7416 80.2211 13.2783 80.2215C13.118 80.2217 12.9578 80.2218 12.7975 80.222C11.9455 80.2227 11.0934 80.2234 10.2414 80.2238C10.044 80.2239 9.84669 80.224 9.64934 80.2241C9.62482 80.2241 9.6003 80.2241 9.57504 80.2241C8.77963 80.2245 7.98423 80.2255 7.18882 80.2267C6.37121 80.2281 5.55359 80.2289 4.73598 80.2291C4.62056 80.2291 4.50515 80.2291 4.38973 80.2291C4.35566 80.2291 4.35566 80.2291 4.3209 80.2292C3.95502 80.2293 3.58915 80.2299 3.22328 80.2307C2.85573 80.2315 2.48819 80.2318 2.12064 80.2314C1.92144 80.2313 1.72225 80.2314 1.52305 80.2321C1.34083 80.2328 1.15863 80.2328 0.976406 80.2322C0.910354 80.2321 0.844302 80.2323 0.778252 80.2328C0.688694 80.2333 0.599189 80.233 0.509633 80.2324C0.483785 80.2328 0.457941 80.2332 0.43131 80.2336C0.301967 80.2317 0.222209 80.2196 0.119883 80.1383C0.0214919 80.0385 0.0113375 80.0205 0 79.881C0.00236419 79.7446 0.0500635 79.6531 0.127519 79.5424C0.141357 79.5217 0.155195 79.5009 0.169453 79.4795C0.22054 79.4031 0.272511 79.3274 0.324459 79.2516C0.367542 79.1879 0.410578 79.1242 0.453578 79.0604C0.529445 78.9481 0.605432 78.8358 0.681692 78.7236C0.970852 78.2984 1.25655 77.8709 1.54226 77.4435C1.71302 77.188 1.88402 76.9328 2.05655 76.6786C2.27371 76.3585 2.48857 76.037 2.7035 75.7155C2.93325 75.3719 3.16324 75.0284 3.39538 74.6863C3.59679 74.3892 3.79597 74.0907 3.99542 73.7924C4.22518 73.4487 4.45517 73.1052 4.68731 72.7631C4.88872 72.4661 5.0879 72.1676 5.28735 71.8692C5.72261 71.2182 5.72261 71.2182 5.93307 70.908C6.1513 70.5864 6.36722 70.2633 6.58322 69.9403C6.82418 69.5799 7.06521 69.2196 7.3088 68.861C7.4503 68.6526 7.59163 68.4441 7.73297 68.2357C7.77123 68.1793 7.8095 68.1228 7.84778 68.0665C8.04978 67.7689 8.25085 67.4708 8.44776 67.17C8.6219 66.9041 8.79903 66.6401 8.97599 66.3761C9.03497 66.2881 9.09392 66.2 9.15286 66.112C9.32899 65.849 9.50544 65.5862 9.68318 65.3242C9.89995 65.0047 10.1144 64.6837 10.329 64.3628C10.5588 64.0191 10.7888 63.6756 11.0209 63.3335C11.2223 63.0365 11.4215 62.7379 11.6209 62.4396C11.8507 62.0959 12.0807 61.7525 12.3128 61.4104C12.5142 61.1133 12.7134 60.8148 12.9129 60.5165C13.1426 60.1728 13.3726 59.8293 13.6048 59.4872C13.8062 59.1902 14.0054 58.8916 14.2048 58.5933C14.6401 57.9423 14.6401 57.9423 14.8505 57.6321C15.0687 57.3105 15.2847 56.9874 15.5007 56.6643C15.7416 56.304 15.9827 55.9437 16.2263 55.585C16.3678 55.3767 16.5091 55.1682 16.6504 54.9597C16.6887 54.9033 16.7269 54.8469 16.7652 54.7905C16.9672 54.4929 17.1683 54.1949 17.3652 53.894C17.5394 53.6282 17.7165 53.3642 17.8934 53.1002C17.9524 53.0121 18.0114 52.9241 18.0703 52.836C18.2464 52.573 18.4229 52.3102 18.6006 52.0483C18.8174 51.7288 19.0319 51.4078 19.2465 51.0868C19.4762 50.7432 19.7062 50.3997 19.9384 50.0576C20.1398 49.7605 20.3389 49.462 20.5384 49.1637C20.7681 48.82 20.9981 48.4765 21.2303 48.1344C21.4317 47.8374 21.6309 47.5389 21.8303 47.2405C22.2656 46.5895 22.2656 46.5895 22.476 46.2793C22.6943 45.9577 22.9102 45.6346 23.1262 45.3116C23.3671 44.9512 23.6082 44.5909 23.8518 44.2322C23.9933 44.0239 24.1346 43.8154 24.2759 43.607C24.3142 43.5505 24.3525 43.4941 24.3908 43.4377C24.5928 43.1402 24.7938 42.8421 24.9907 42.5412C25.1649 42.2754 25.342 42.0114 25.519 41.7474C25.5779 41.6594 25.6369 41.5713 25.6958 41.4833C25.872 41.2203 26.0484 40.9575 26.2261 40.6955C26.4429 40.376 26.6574 40.055 26.872 39.734C27.1017 39.3904 27.3317 39.0469 27.5639 38.7048C27.7653 38.4077 27.9645 38.1092 28.1639 37.8109C28.3937 37.4672 28.6237 37.1238 28.8558 36.7817C29.0572 36.4846 29.2564 36.1861 29.4558 35.8878C29.5336 35.7714 29.6114 35.6551 29.6892 35.5388C29.7083 35.5103 29.7273 35.4819 29.7469 35.4525C29.8645 35.277 29.9828 35.1019 30.1016 34.9271C30.2417 34.7209 30.3795 34.5131 30.5166 34.3048C30.5752 34.2161 30.6339 34.1275 30.6925 34.0388C30.7322 33.9786 30.7718 33.9184 30.8113 33.858C31.4682 32.8543 31.4682 32.8543 32.1138 32.7047C32.369 32.66 32.6359 32.6762 32.894 32.6775ZM45.3085 38.3374C45.2532 38.4067 45.2245 38.4723 45.1953 38.5553C45.1745 38.5553 45.1537 38.5553 45.1323 38.5553C45.0903 38.61 45.0513 38.6669 45.0135 38.7245C45.0014 38.7428 44.9893 38.7611 44.9768 38.78C44.9501 38.8204 44.9235 38.8609 44.897 38.9015C44.8539 38.9674 44.8105 39.0332 44.767 39.099C44.7197 39.1706 44.6724 39.2422 44.6252 39.3139C44.4222 39.6217 44.2169 39.9279 44.0117 40.2342C43.972 40.2936 43.9322 40.3529 43.8925 40.4122C43.6644 40.7528 43.4354 41.0927 43.2051 41.4318C42.9596 41.7934 42.7165 42.1566 42.4736 42.5199C42.1922 42.9407 41.9099 43.3609 41.6255 43.7797C41.3208 44.2287 41.0191 44.6796 40.7175 45.1307C40.6988 45.1586 40.6801 45.1865 40.6609 45.2153C40.6247 45.2695 40.5885 45.3237 40.5524 45.3779C40.4773 45.4905 40.4019 45.6028 40.3237 45.7134C40.3008 45.746 40.2778 45.7787 40.2542 45.8123C40.2349 45.8392 40.2157 45.866 40.1958 45.8936C40.1244 46.0209 40.1237 46.139 40.1536 46.279C40.2056 46.4245 40.2701 46.5108 40.4057 46.5891C40.6147 46.6324 40.8301 46.6215 41.0421 46.614C41.0761 46.6129 41.1102 46.6118 41.1452 46.6107C41.2572 46.607 41.3691 46.603 41.481 46.5988C41.5392 46.5967 41.5392 46.5967 41.5985 46.5946C44.6116 46.4839 47.6699 46.1605 52.7578 44.5109C52.7828 44.5001 52.8079 44.4892 52.8337 44.478C53.7108 44.0973 54.5215 43.5795 55.2156 42.929C55.2402 42.9068 55.2648 42.8846 55.2901 42.8617C55.966 42.2318 56.3601 41.3621 56.3933 40.4494C56.3768 39.9936 56.1781 39.639 55.8458 39.3308C54.156 37.9867 51.2913 38.0389 49.2286 37.935C49.1955 37.9333 49.1955 37.9333 49.1617 37.9316C48.9005 37.9184 48.6393 37.9098 48.3778 37.904C48.3489 37.9033 48.32 37.9027 48.2901 37.902C48.0404 37.8965 47.7906 37.8914 47.5409 37.8865C47.5055 37.8858 47.4701 37.8851 47.4336 37.8844C47.0949 37.8779 46.7562 37.8718 46.4174 37.8699C46.395 37.8697 46.3727 37.8694 46.3496 37.8692C45.9256 37.8683 45.6027 38.0472 45.3085 38.3374Z" fill="black"/>
</svg>
